<svg width="16.000000" height="16.000000" viewBox="0 0 16 16" fill="none" xmlns="http://www.w3.org/2000/svg" xmlns:xlink="http://www.w3.org/1999/xlink">
	<desc>
			Created with Pixso.
	</desc>
	<defs>
		<clipPath id="clip84_3326">
			<rect id="Brand/brand-react-native" width="16.000000" height="16.000000" fill="white" fill-opacity="0"/>
		</clipPath>
	</defs>
	<rect id="Brand/brand-react-native" width="16.000000" height="16.000000" fill="#FFFFFF" fill-opacity="0"/>
	<g clip-path="url(#clip84_3326)">
		<path id="Vector" d="M4.23 6C2.48 6.45 1.33 7.23 1.33 8.11C1.33 9.52 4.27 10.66 7.9 10.66C8.39 10.66 8.74 10.64 9.2 10.6M6.55 10.6C6.28 10.2 6.02 9.84 5.77 9.4C3.93 6.13 3.44 2.88 4.68 2.15C5.45 1.68 6.71 2.32 8 3.65M4.28 10.25C3.81 12.05 3.91 13.4 4.65 13.85C5.84 14.57 8.25 12.54 10.02 9.31C10.26 8.87 10.47 8.43 10.66 8M8 12.34C9.28 13.68 10.54 14.31 11.31 13.84C12.55 13.11 12.06 9.86 10.22 6.6C9.97 6.14 9.71 5.79 9.44 5.4M11.77 10C13.51 9.54 14.66 8.76 14.66 7.88C14.66 6.47 11.72 5.33 8.1 5.33C7.6 5.33 7.25 5.35 6.8 5.39M5.33 8C5.52 7.56 5.73 7.12 5.97 6.68C7.74 3.45 10.14 1.42 11.34 2.14C12.08 2.6 12.18 3.95 11.71 5.74M8.17 8.01L8.16 8.01C8.16 8.09 8.08 8.17 7.99 8.17C7.94 8.16 7.9 8.14 7.87 8.11C7.84 8.08 7.82 8.04 7.82 7.99C7.82 7.9 7.9 7.83 7.98 7.83L7.98 7.83C8.06 7.82 8.14 7.9 8.14 7.99" stroke="currentColor" stroke-opacity="1.000000" stroke-width="2.000000" stroke-linejoin="round" stroke-linecap="round"/>
	</g>
</svg>
