<svg t="1745375153868" class="icon" viewBox="100 100 824 824" version="1.1"
    xmlns="http://www.w3.org/2000/svg" p-id="4954" stroke="currentColor">

    <path d="M448 827.776A379.776 379.776 0 1 1 827.776 448 380.16 380.16 0 0 1 448 827.776zM448 145.088A302.912 302.912 0 1 0 750.912 448 303.296 303.296 0 0 0 448 145.088z" p-id="4955" stroke="currentColor"></path>
    <path d="M902.656 941.056a38.272 38.272 0 0 1-27.2-11.264l-214.592-214.592a38.4 38.4 0 1 1 54.336-54.336l214.592 214.592a38.4 38.4 0 0 1-27.2 65.6zM448 278.4a32 32 0 0 1-32-32V106.688a32 32 0 0 1 64 0V246.4a32 32 0 0 1-32 32zM448 821.312a32 32 0 0 1-32-32V649.6a32 32 0 0 1 64 0v139.712a32 32 0 0 1-32 32zM789.376 480H649.6a32 32 0 1 1 0-64h139.776a32 32 0 0 1 0 64zM246.4 480H106.688a32 32 0 1 1 0-64H246.4a32 32 0 0 1 0 64z" p-id="4956" stroke="currentColor"></path>
    <path d="M446.848 448m-46.528 0a46.528 46.528 0 1 0 93.056 0 46.528 46.528 0 1 0-93.056 0Z" p-id="4957" stroke="currentColor"></path>
</svg>