<svg viewBox="0 0 20 20" xmlns="http://www.w3.org/2000/svg" xmlns:xlink="http://www.w3.org/1999/xlink" width="20.000000" height="20.000000" fill="none">
	<rect id="chat 1" width="20.000000" height="20.000000" x="0.000000" y="0.000000" />
	<path id="矢量 104" d="M1.57766 9.31111C1.57766 7.8 1.95544 6.39259 2.71099 5.08889C3.45173 3.82963 4.45173 2.82963 5.71099 2.08889C7.0147 1.31852 8.44432 0.933333 9.99988 0.933333C11.5554 0.933333 12.9999 1.31852 14.3332 2.08889C15.6221 2.82963 16.6443 3.82963 17.3999 5.08889C18.1702 6.39259 18.5554 7.8 18.5554 9.31111C18.5554 10.6148 18.274 11.837 17.711 12.9778C17.1777 14.0889 16.4184 15.0407 15.4332 15.8333C14.448 16.6259 13.3406 17.1704 12.111 17.4667L9.53321 18.6L9.53321 17.6889C8.06655 17.5852 6.7184 17.1407 5.48877 16.3556C4.28877 15.6 3.34062 14.6074 2.64432 13.3778C1.93321 12.1185 1.57766 10.763 1.57766 9.31111L1.57766 9.31111ZM0.48877 9.31111C0.48877 10.8667 0.851733 12.3185 1.57766 13.6667C2.28877 14.9852 3.27025 16.0778 4.5221 16.9444C5.77395 17.8111 7.16284 18.3481 8.68877 18.5556C8.54062 19.5185 8.48877 20 8.53321 20C8.57766 20 9.98507 19.4148 12.7554 18.2444C14.0443 17.8593 15.2036 17.2296 16.2332 16.3556C17.2628 15.4815 18.0591 14.4444 18.6221 13.2444C19.2147 12 19.511 10.6889 19.511 9.31111C19.511 7.63704 19.0814 6.07407 18.2221 4.62222C17.3777 3.21481 16.2369 2.1037 14.7999 1.28889C13.3184 0.42963 11.7184 0 9.99988 0C8.28136 0 6.68136 0.42963 5.19988 1.28889C3.76284 2.1037 2.6221 3.21481 1.77766 4.62222C0.918399 6.07407 0.48877 7.63704 0.48877 9.31111L0.48877 9.31111ZM6.8221 12.1111L6.19988 12.3778C6.45173 12.8519 6.9184 13.2444 7.59988 13.5556C8.31099 13.8815 9.09988 14.0444 9.96655 14.0444C10.8332 14.0444 11.6221 13.8889 12.3332 13.5778C13.0443 13.2667 13.5332 12.8815 13.7999 12.4222L13.1777 12.1556C12.9406 12.5111 12.548 12.8148 11.9999 13.0667C11.3925 13.3333 10.7295 13.4667 10.011 13.4667C9.29247 13.4667 8.62951 13.3333 8.0221 13.0667C7.45914 12.8148 7.05914 12.4963 6.8221 12.1111L6.8221 12.1111Z" fill="currentColor" fill-rule="nonzero" />
</svg>
