<svg viewBox="0 0 26 26" xmlns="http://www.w3.org/2000/svg" xmlns:xlink="http://www.w3.org/1999/xlink" width="26.000000" height="26.000000" fill="none">
	<rect id="Equilizer2 1" width="26.000000" height="26.000000" x="0.000000" y="0.000000" />
	<path id="矢量 93" d="M20.3125 21.6598L20.3125 21.9375C20.3125 22.1091 20.2582 22.2763 20.1573 22.4151C20.0564 22.5539 19.9142 22.6572 19.751 22.7102C19.5879 22.7633 19.4121 22.7633 19.2489 22.7102C19.0857 22.6572 18.9435 22.5539 18.8426 22.4151C18.7418 22.2763 18.6875 22.1091 18.6875 21.9375L18.6875 21.6584C18.6875 20.7624 18.0291 20.008 17.5103 19.2775C17.2192 18.8676 17.0629 18.3773 17.0629 17.8746C17.0629 17.3719 17.2192 16.8816 17.5103 16.4717C18.0291 15.7412 18.6875 14.9868 18.6875 14.0908L18.6875 4.0625C18.6875 3.89092 18.7418 3.72374 18.8426 3.58492C18.9435 3.44611 19.0857 3.34279 19.2489 3.28977C19.4121 3.23674 19.5879 3.23674 19.751 3.28977C19.9142 3.34279 20.0564 3.44611 20.1573 3.58492C20.2582 3.72374 20.3125 3.89092 20.3125 4.0625L20.3125 14.0902C20.3125 14.9865 20.9713 15.741 21.4904 16.4716C21.7817 16.8816 21.9382 17.3721 21.9382 17.875C21.9382 18.3779 21.7817 18.8684 21.4904 19.2784C20.9713 20.009 20.3125 20.7635 20.3125 21.6598ZM19.5 17.0625C19.0512 17.0625 18.6875 17.4263 18.6875 17.875C18.6875 18.3237 19.0512 18.6875 19.5 18.6875C19.9487 18.6875 20.3125 18.3237 20.3125 17.875C20.3125 17.4263 19.9487 17.0625 19.5 17.0625ZM13.8125 12.7223L13.8125 21.9375C13.8125 22.1091 13.7582 22.2763 13.6573 22.4151C13.5564 22.5539 13.4142 22.6572 13.251 22.7102C13.0879 22.7633 12.9121 22.7633 12.7489 22.7102C12.5857 22.6572 12.4435 22.5539 12.3426 22.4151C12.2418 22.2763 12.1875 22.1091 12.1875 21.9375L12.1875 12.7209C12.1875 11.8249 11.5291 11.0705 11.0103 10.34C10.7192 9.9301 10.5629 9.43982 10.5629 8.93709C10.5629 8.43437 10.7192 7.94408 11.0103 7.5342C11.5291 6.8037 12.1875 6.04929 12.1875 5.15331L12.1875 4.0625C12.1875 3.89092 12.2418 3.72374 12.3426 3.58492C12.4435 3.44611 12.5857 3.34279 12.7489 3.28977C12.9121 3.23674 13.0879 3.23674 13.251 3.28977C13.4142 3.34279 13.5564 3.44611 13.6573 3.58492C13.7582 3.72374 13.8125 3.89092 13.8125 4.0625L13.8125 5.15269C13.8125 6.04895 14.4713 6.8035 14.9904 7.53411C15.2817 7.94408 15.4382 8.43456 15.4382 8.9375C15.4382 9.44044 15.2817 9.93092 14.9904 10.3409C14.4713 11.0715 13.8125 11.826 13.8125 12.7223ZM13 8.125C12.5512 8.125 12.1875 8.48877 12.1875 8.9375C12.1875 9.38623 12.5512 9.75 13 9.75C13.4487 9.75 13.8125 9.38623 13.8125 8.9375C13.8125 8.48877 13.4487 8.125 13 8.125ZM7.31247 19.2223L7.31247 21.9375C7.31247 22.1091 7.25815 22.2763 7.1573 22.4151C7.05644 22.5539 6.91423 22.6572 6.75105 22.7102C6.58786 22.7633 6.41208 22.7633 6.24889 22.7102C6.08571 22.6572 5.9435 22.5539 5.84264 22.4151C5.74179 22.2763 5.68747 22.1091 5.68747 21.9375L5.68747 19.2209C5.68747 18.3249 5.02913 17.5705 4.51034 16.84C4.21925 16.4301 4.06287 15.9398 4.06287 15.4371C4.06287 14.9344 4.21925 14.4441 4.51034 14.0342C5.02913 13.3037 5.68747 12.5493 5.68747 11.6533L5.68747 4.0625C5.68747 3.89092 5.74179 3.72374 5.84264 3.58492C5.9435 3.44611 6.08571 3.34279 6.24889 3.28977C6.41208 3.23674 6.58786 3.23674 6.75105 3.28977C6.91423 3.34279 7.05644 3.44611 7.1573 3.58492C7.25815 3.72374 7.31247 3.89092 7.31247 4.0625L7.31247 11.6527C7.31247 12.549 7.97127 13.3035 8.49041 14.0341C8.78172 14.4441 8.93824 14.9346 8.93824 15.4375C8.93824 15.9404 8.78172 16.4309 8.49041 16.8409C7.97127 17.5715 7.31247 18.326 7.31247 19.2223ZM6.49997 14.625C6.05124 14.625 5.68747 14.9888 5.68747 15.4375C5.68747 15.8862 6.05124 16.25 6.49997 16.25C6.9487 16.25 7.31247 15.8862 7.31247 15.4375C7.31247 14.9888 6.9487 14.625 6.49997 14.625Z" fill="rgb(85,97,135)" fill-rule="nonzero" />
</svg>
