<?xml version="1.0" standalone="no"?><!DOCTYPE svg PUBLIC "-//W3C//DTD SVG 1.1//EN" "http://www.w3.org/Graphics/SVG/1.1/DTD/svg11.dtd">
<svg t="1768132341235" class="icon" viewBox="0 0 1024 1024" version="1.1"
    xmlns="http://www.w3.org/2000/svg" p-id="2630"
    xmlns:xlink="http://www.w3.org/1999/xlink" width="200" height="200">
    <path d="M874.666667 544a96 96 0 0 1 96 96v234.666667a96 96 0 0 1-96 96H640a96 96 0 0 1-96-96V640a96 96 0 0 1 96-96z m-490.666667 0a96 96 0 0 1 96 96v234.666667a96 96 0 0 1-96 96H149.333333A96 96 0 0 1 53.333333 874.666667V640A96 96 0 0 1 149.333333 544z m490.666667 64H640a32 32 0 0 0-32 32v234.666667a32 32 0 0 0 32 32h234.666667a32 32 0 0 0 32-32V640a32 32 0 0 0-32-32z m-490.666667 0H149.333333A32 32 0 0 0 117.333333 640v234.666667A32 32 0 0 0 149.333333 906.666667h234.666667a32 32 0 0 0 32-32V640a32 32 0 0 0-32-32z m0-554.666667A96 96 0 0 1 480 149.333333v234.666667a96 96 0 0 1-96 96H149.333333A96 96 0 0 1 53.333333 384V149.333333A96 96 0 0 1 149.333333 53.333333z m256 5.184a96 96 0 0 1 67.882667 28.117334l229.482666 229.482666a96 96 0 0 1-67.882666 163.882667H640a96 96 0 0 1-96-96V154.517333a96 96 0 0 1 96-96zM384 117.333333H149.333333A32 32 0 0 0 117.333333 149.333333v234.666667A32 32 0 0 0 149.333333 416h234.666667a32 32 0 0 0 32-32V149.333333A32 32 0 0 0 384 117.333333z m256 5.184a32 32 0 0 0-32 32V384a32 32 0 0 0 32 32h229.482667a32 32 0 0 0 22.634666-54.613333L662.634667 131.861333A32 32 0 0 0 640 122.496z" fill="currentColor" p-id="2631"></path>
</svg>