<svg viewBox="0 0 26 26" xmlns="http://www.w3.org/2000/svg" xmlns:xlink="http://www.w3.org/1999/xlink" width="26.000000" height="26.000000" fill="none" customFrame="#000000">
	<path id="矢量 101" d="M13 26C5.85 26 0 20.15 0 13C0 5.85 5.85 0 13 0C20.15 0 26 5.85 26 13C26 20.15 20.15 26 13 26ZM13 22.75C18.3625 22.75 22.75 18.3625 22.75 13C22.75 7.6375 18.3625 3.25 13 3.25C7.6375 3.25 3.25 7.6375 3.25 13C3.25 18.3625 7.6375 22.75 13 22.75ZM17.875 13L9.75 17.875L9.75 8.125L17.875 13Z" fill="rgb(85,97,135)" fill-rule="nonzero" />
</svg>
