<svg viewBox="0 0 20 18.7571" xmlns="http://www.w3.org/2000/svg" xmlns:xlink="http://www.w3.org/1999/xlink" width="20.000000" height="18.757080" fill="none">
	<rect id="板书标记 1" width="20.000000" height="18.757168" x="0.000000" y="0.000000" />
	<path id="矢量 102" d="M12.2387 8.17323L12.6037 7.58707L13.007 6.92666C13.8603 5.5105 14.437 4.42649 14.7603 3.59414C14.8687 3.31122 14.9437 3.07285 14.982 2.88684L14.9878 2.85792L14.9795 2.85948C12.4962 3.33388 3.94616 10.4507 2.17116 13.5479L2.11283 13.6527C2.02567 13.8168 1.89398 13.9566 1.73099 14.0579C1.568 14.1592 1.37946 14.2185 1.1843 14.2298C0.989146 14.2411 0.794248 14.2041 0.619188 14.1224C0.444128 14.0407 0.295073 13.9173 0.186996 13.7644C0.07967 13.6124 0.0175279 13.4363 0.00698074 13.2543C-0.00356637 13.0723 0.0378635 12.8909 0.126996 12.7289C1.02116 11.0665 3.9545 8.0474 7.18783 5.38389L7.5945 5.05095C11.1687 2.15765 14.0603 0.500769 15.7803 0.820422C16.662 0.984548 17.1762 1.61995 17.2345 2.43667C17.2712 2.9603 17.1328 3.566 16.8512 4.29441C16.4228 5.39717 15.6703 6.76957 14.532 8.61481L14.0337 9.41355L12.6687 11.5691L11.9687 12.6882L12.6553 12.3092L13.1828 12.0224C14.8495 11.1314 15.6503 10.8719 16.5303 11.1994C17.4553 11.5433 17.687 12.3342 17.4995 13.222C17.4145 13.6206 17.2537 14.0427 16.9912 14.5976L16.7962 15.0016L16.8545 14.9625C17.3353 14.6343 17.8045 14.2787 18.0487 14.0638L18.1095 14.0091C18.2481 13.8808 18.4201 13.7887 18.6084 13.7419C18.7966 13.6952 18.9947 13.6954 19.1828 13.7425C19.5662 13.8379 19.8662 14.1161 19.9678 14.4725C20.0712 14.8289 19.9612 15.2087 19.6812 15.4698C19.3028 15.8207 18.4678 16.4475 17.717 16.9258L17.5687 17.0196C16.0153 17.9824 15.0778 18.3302 14.2212 17.5354C13.6837 17.0352 13.7178 16.5319 13.9945 15.7957L14.1195 15.4815C14.1828 15.333 14.2553 15.1822 14.4395 14.8133L14.8178 14.0567C14.9053 13.8793 14.9812 13.7183 15.0453 13.5745L15.1203 13.4034L15.062 13.4291C14.7937 13.5511 14.4837 13.7082 14.0937 13.9184L12.5037 14.7922C11.9478 15.0915 11.7095 15.2033 11.3562 15.3416C10.8953 15.5221 10.5145 15.6097 10.1145 15.5604C9.3645 15.4706 8.897 14.9086 8.897 14.224C8.897 13.7191 9.172 13.1204 9.812 12.0427L9.99616 11.7363C10.1078 11.5519 10.3353 11.1869 10.6012 10.7633L12.2403 8.17323L12.2387 8.17323Z" fill="currentColor" fill-rule="nonzero" />
</svg>
