<?xml version="1.0" standalone="no"?><!DOCTYPE svg PUBLIC "-//W3C//DTD SVG 1.1//EN" "http://www.w3.org/Graphics/SVG/1.1/DTD/svg11.dtd"><svg t="1768132414345" class="icon" viewBox="0 0 1024 1024" version="1.1" xmlns="http://www.w3.org/2000/svg" p-id="3222" xmlns:xlink="http://www.w3.org/1999/xlink" width="200" height="200"><path d="M898.5 541H369.6c-17.7 0-32-14.3-32-32s14.3-32 32-32h528.9c17.7 0 32 14.3 32 32s-14.3 32-32 32z" p-id="3223"></path><path d="M927.3 533.6c-8.2 0-16.4-3.1-22.6-9.4L712.4 331.8c-12.5-12.5-12.5-32.8 0-45.3s32.8-12.5 45.3 0L949.9 479c12.5 12.5 12.5 32.8 0 45.3-6.2 6.2-14.4 9.3-22.6 9.3z" p-id="3224"></path><path d="M734.7 740.9c-8.2 0-16.4-3.1-22.6-9.4-12.5-12.5-12.5-32.8 0-45.3L904.5 494c12.5-12.5 32.8-12.5 45.3 0s12.5 32.8 0 45.3L757.3 731.5c-6.2 6.3-14.4 9.4-22.6 9.4z" p-id="3225"></path><path d="M614.1 955.9H246.7c-48.2 0-93.7-18.9-128-53.2-34.3-34.3-53.2-79.8-53.2-128V246c0-48.2 18.9-93.7 53.2-128 34.3-34.3 79.8-53.2 128-53.2h367.4c17.7 0 32 14.3 32 32s-14.3 32-32 32H246.7c-64.6 0-117.2 52.6-117.2 117.2v528.7c0 64.6 52.6 117.2 117.2 117.2h367.4c17.7 0 32 14.3 32 32s-14.3 32-32 32z" fill="currentColor" p-id="3226"></path></svg>