<?xml version="1.0" standalone="no"?><!DOCTYPE svg PUBLIC "-//W3C//DTD SVG 1.1//EN" "http://www.w3.org/Graphics/SVG/1.1/DTD/svg11.dtd">
<svg t="1768132254268" class="icon" viewBox="0 0 1024 1024" version="1.1"
    xmlns="http://www.w3.org/2000/svg" p-id="2047"
    xmlns:xlink="http://www.w3.org/1999/xlink" width="200" height="200">
    <path d="M751.917176 66.56c-6.806588 0-13.492706 0.301176-20.178823 0.963765l-536.515765 52.464941A210.401882 210.401882 0 0 0 5.842824 329.968941v369.242353c0 57.223529 23.009882 112.037647 63.849411 151.792941a208.534588 208.534588 0 0 0 152.877177 59.211294c68.547765-2.409412 121.856-3.614118 160.105412-3.614117a30.900706 30.900706 0 0 0 29.575529-30.960941 30.900706 30.900706 0 0 0-29.575529-30.960942c-39.032471 0-93.003294 1.204706-162.153412 3.553883a147.998118 147.998118 0 0 1-108.062118-41.803294 150.106353 150.106353 0 0 1-45.17647-107.39953V329.728c0-76.739765 57.825882-140.950588 133.842823-148.359529l536.515765-52.404706a147.516235 147.516235 0 0 1 113.844706 37.948235c30.900706 28.310588 48.549647 68.367059 48.549647 110.471529v357.918118c0.602353 16.624941 14.155294 29.816471 30.780235 29.816471 16.504471 0 30.117647-13.191529 30.780235-29.816471v-357.797647c-0.120471-116.495059-93.967059-210.944-209.679059-210.944z" fill="currentColor" p-id="2048"></path>
    <path d="M226.484706 348.340706c0-22.829176 23.853176-37.827765 44.272941-27.828706l18.612706 9.216 5.421176 2.770824 113.061647 55.536941 94.328471 46.320941 31.021177 15.179294 8.673882 4.216471 2.409412 1.204705 0.481882 0.240942 4.216471 2.469647a31.081412 31.081412 0 0 1-1.084236 51.621647l-0.783059 0.481882-2.409411 1.445647-8.613647 5.541647-31.141647 19.817412-94.328471 60.235294-110.832941 70.836706-10.721883 6.866824-15.299764 9.758117a30.659765 30.659765 0 0 1-47.284706-26.081882V348.340706z m61.44 49.573647v204.077176L289.129412 601.148235l78.305882-50.115764 10.360471-6.625883 94.32847-60.235294-3.614117 2.228706-1.505883-0.662588-76.619294-37.586824-9.637647-4.818823-90.533647-44.393412-2.409412-1.084235zM722.823529 449.234824c29.997176 0 54.633412 25.6 54.633412 56.862117v56.862118c0 31.262118-24.636235 56.862118-54.633412 56.862117-29.997176 0-54.633412-25.6-54.633411-56.862117v-56.862118c0-31.262118 24.515765-56.862118 54.633411-56.862117z m0-56.862118c-60.114824 0-109.206588 51.2-109.206588 113.724235v56.862118c0 62.524235 49.091765 113.844706 109.206588 113.844706s109.266824-51.2 109.266824-113.844706v-56.862118c0-62.524235-49.272471-113.724235-109.266824-113.724235z m0 327.017412c-40.96 0-245.820235 4.216471-245.820235 85.353411v99.388236c0 15.721412 12.288 28.491294 27.346824 28.491294h437.248a28.069647 28.069647 0 0 0 27.346823-28.491294v-99.388236c-0.240941-81.136941-205.101176-85.353412-246.121412-85.353411zM531.516235 808.96c13.613176-12.830118 80.594824-32.707765 191.247059-32.707765 110.652235 0 177.633882 21.323294 191.247059 32.707765v66.861176h-382.494118v-66.861176z" fill="currentColor" p-id="2049"></path>
</svg>