<svg viewBox="0 0 20 18.7571" xmlns="http://www.w3.org/2000/svg" xmlns:xlink="http://www.w3.org/1999/xlink" width="20.000000" height="18.757080" fill="none">
	<rect id="文字 1" width="20.000000" height="18.757168" x="0.000000" y="0.000000" />
	<path id="矢量 103" d="M2.49499 1.81611L1.98999 5.60741L2.49499 5.60741C2.49499 4.28034 3.60624 3.23814 5.02124 3.23814L8.55874 3.23814L8.55874 15.3213C8.55874 15.9848 8.00249 16.5065 7.29499 16.5065L6.03249 16.5065L6.03249 16.9813L14.115 16.9813L14.115 16.5065L12.8525 16.5065C12.63 16.5088 12.4108 16.4553 12.2177 16.3517C12.0245 16.248 11.8644 16.0978 11.7538 15.9167C11.6433 15.7355 11.5863 15.53 11.5887 15.3213L11.5887 3.23697L15.1262 3.23697C16.54 3.23697 17.6525 4.28034 17.6525 5.60623L18.1562 5.60623L17.6525 1.81494L2.49499 1.81494L2.49499 1.81611L2.49499 1.81611Z" fill="currentColor" fill-rule="nonzero" />
</svg>
