<svg viewBox="0 0 24 24" xmlns="http://www.w3.org/2000/svg" xmlns:xlink="http://www.w3.org/1999/xlink" width="24.000000" height="24.000000" fill="none">
	<rect id="icon_地球仪 1" width="24.000000" height="24.000000" x="0.000000" y="0.000000" />
	<path id="矢量 72" d="M1.06494 11.9999C1.06494 14.3092 1.796 16.5592 3.15334 18.4274C4.51068 20.2956 6.42462 21.6861 8.62084 22.3997C10.8171 23.1133 13.1828 23.1133 15.379 22.3997C17.5753 21.6861 19.4892 20.2956 20.8465 18.4274C22.2039 16.5592 22.9349 14.3092 22.9349 11.9999C22.9349 9.69069 22.2039 7.44073 20.8465 5.57251C19.4892 3.70429 17.5753 2.31373 15.379 1.60014C13.1828 0.886542 10.8171 0.886542 8.62084 1.60014C6.42462 2.31373 4.51068 3.70429 3.15334 5.57251C1.796 7.44073 1.06494 9.6907 1.06494 11.9999Z" fill="rgb(43,54,116)" fill-rule="nonzero" />
	<path id="矢量 73" d="M12 23.3906C5.71922 23.3906 0.609375 18.2808 0.609375 12C0.609375 5.71922 5.71922 0.609375 12 0.609375C18.2808 0.609375 23.3906 5.71922 23.3906 12C23.3906 18.2808 18.2808 23.3906 12 23.3906ZM12 1.52063C6.22148 1.52062 1.52062 6.22172 1.52062 12C1.52062 17.7783 6.22148 22.4794 12 22.4794C17.7785 22.4794 22.4794 17.7783 22.4794 12C22.4794 6.22172 17.7785 1.52062 12 1.52062L12 1.52063Z" fill="rgb(255,255,255)" fill-rule="nonzero" />
	<path id="矢量 74" d="M5.87647 11.9999C5.87646 14.3092 6.28585 16.5592 7.04595 18.4274C7.80605 20.2956 8.87784 21.6861 10.1077 22.3997C11.3376 23.1133 12.6624 23.1133 13.8922 22.3997C15.1221 21.6861 16.1939 20.2956 16.954 18.4274C17.7141 16.5592 18.1235 14.3092 18.1235 11.9999C18.1235 9.69069 17.7141 7.44073 16.954 5.57251C16.1939 3.70429 15.1221 2.31373 13.8922 1.60014C12.6624 0.886542 11.3376 0.886542 10.1077 1.60014C8.87784 2.31373 7.80605 3.70429 7.04595 5.57251C6.28585 7.44073 5.87646 9.6907 5.87646 11.9999L5.87647 11.9999Z" fill="rgb(43,54,116)" fill-rule="nonzero" />
	<path id="矢量 75" d="M12 23.3906C8.3105 23.3906 5.42065 18.3872 5.42065 12C5.42065 5.61281 8.3105 0.609375 12 0.609375C15.6896 0.609375 18.5794 5.61281 18.5794 12C18.5794 18.3872 15.6896 23.3906 12 23.3906ZM12 1.52063C8.87464 1.52063 6.3319 6.22172 6.3319 12C6.3319 17.7783 8.87464 22.4794 12 22.4794C15.1254 22.4794 17.6682 17.7783 17.6682 12C17.6682 6.22172 15.1254 1.52062 12 1.52062L12 1.52063Z" fill="rgb(255,255,255)" fill-rule="nonzero" />
	<path id="矢量 76" />
	<path id="矢量 77" d="M2.15857 16.0278L21.8411 16.0278L21.8411 16.9391L2.15857 16.9391L2.15857 16.0278Z" fill="rgb(255,255,255)" fill-rule="nonzero" />
	<path id="矢量 78" />
	<path id="矢量 79" d="M2.15857 7.06104L21.8411 7.06104L21.8411 7.97229L2.15857 7.97229L2.15857 7.06104Z" fill="rgb(255,255,255)" fill-rule="nonzero" />
	<path id="矢量 80" />
	<path id="矢量 81" d="M1.06494 11.5444L22.9349 11.5444L22.9349 12.4557L1.06494 12.4557L1.06494 11.5444Z" fill="rgb(255,255,255)" fill-rule="nonzero" />
	<path id="矢量 82" />
	<path id="矢量 83" d="M11.5444 1.06494L12.4557 1.06494L12.4557 22.9349L11.5444 22.9349L11.5444 1.06494Z" fill="rgb(255,255,255)" fill-rule="nonzero" />
</svg>
