<?xml version="1.0" standalone="no"?><!DOCTYPE svg PUBLIC "-//W3C//DTD SVG 1.1//EN" "http://www.w3.org/Graphics/SVG/1.1/DTD/svg11.dtd">
<svg t="1768132281064" class="icon" viewBox="0 0 1024 1024" version="1.1"
    xmlns="http://www.w3.org/2000/svg" p-id="2193"
    xmlns:xlink="http://www.w3.org/1999/xlink" width="200" height="200">
    <path d="M854.5792 51.9168A131.6352 131.6352 0 0 1 972.8 182.784V841.216l-0.7168 13.4144a131.6352 131.6352 0 0 1-117.504 117.504L841.216 972.8H182.784a131.6352 131.6352 0 0 1-130.9184-118.2208L51.2 841.216V182.784A131.6352 131.6352 0 0 1 182.8352 51.2H841.216l13.4144 0.7168zM353.9968 893.7984h487.168c29.0816 0 52.6336-23.552 52.6336-52.6336V419.84H353.9968v473.9584z m-223.7952-52.6336c0 29.0816 23.552 52.6336 52.6336 52.6336h92.16V419.84H130.2016v421.3248zM182.8352 130.2016c-29.0816 0-52.6336 23.552-52.6336 52.6336v158.0032h763.5968V182.8352c0-29.0816-23.552-52.6336-52.6336-52.6336H182.784z" fill="currentColor" p-id="2194"></path>
</svg>