<?xml version="1.0" standalone="no"?><!DOCTYPE svg PUBLIC "-//W3C//DTD SVG 1.1//EN" "http://www.w3.org/Graphics/SVG/1.1/DTD/svg11.dtd">
<svg t="1768132304169" class="icon" viewBox="0 0 1024 1024" version="1.1"
    xmlns="http://www.w3.org/2000/svg" p-id="2338"
    xmlns:xlink="http://www.w3.org/1999/xlink" width="200" height="200">
    <path d="M113.323 233.344a120.021 120.021 0 0 1 120.064-120.021h557.226a120.021 120.021 0 0 1 120.022 120.021v176h-64v-176c0-30.933-25.088-56.021-56.022-56.021H233.387c-30.934 0-56.022 25.088-56.022 56.021v557.27c0 30.933 25.088 56.02 56.022 56.02h87.893v64h-87.893a120.021 120.021 0 0 1-120.022-120.02V233.386z" fill="currentColor" p-id="2339"></path>
    <path d="M347.99 321.323a32 32 0 0 1 32-32h176.042a119.979 119.979 0 1 1 0 240H379.947a32 32 0 1 1 0-64h176a56.021 56.021 0 0 0 0.042-112h-176a32 32 0 0 1-32-32z" fill="currentColor" p-id="2340"></path>
    <path d="M379.99 289.323a32 32 0 0 1 32 32v293.333a32 32 0 1 1-64 0V321.323a32 32 0 0 1 32-32zM776.021 453.333l63.872 141.44 141.44 63.915-141.44 63.872L776.021 864l-63.914-141.44-141.44-63.872 141.44-63.915 63.872-141.44zM512 746.667l39.808 77.525L629.333 864l-77.525 39.808L512 981.333l-39.808-77.525L394.667 864l77.525-39.808L512 746.667z" p-id="2341" fill="currentColor"></path>
</svg>