<svg width="15.416473" height="16.000000" viewBox="0 0 15.4165 16" fill="none" xmlns="http://www.w3.org/2000/svg" xmlns:xlink="http://www.w3.org/1999/xlink">
	<desc>
			Created with Pixso.
	</desc>
	<defs/> 
	<rect id="icon/clean" width="15.416486" height="16.000000" fill="#FFFFFF" fill-opacity="0"/>
	<rect id="矩形 9" width="15.416485" height="16.000000" fill="currentColor" fill-opacity="0"/>
	<path id="icon" d="M11.73 12.95C11.64 13.89 10.65 14.45 9.8 14.05C9.53 13.92 9.22 13.89 8.93 13.95L8.22 14.11C7.47 14.27 6.69 14.18 5.99 13.86L5.33 13.55C5.06 13.43 4.75 13.39 4.46 13.46C3.54 13.65 2.7 12.89 2.79 11.95L3.21 7.88C3.39 6.23 4.86 5.04 6.5 5.22L9.48 5.56C11.13 5.74 12.33 7.23 12.16 8.88L11.73 12.95ZM12.16 8.88L3.21 7.88M6.5 5.22L6.81 2.23C6.9 1.41 7.64 0.81 8.46 0.91C9.28 1 9.88 1.74 9.79 2.57L9.48 5.56" stroke="currentColor" stroke-opacity="1.000000" stroke-width="1.000000" stroke-linejoin="round"/>
</svg>
