<?xml version="1.0" standalone="no"?><!DOCTYPE svg PUBLIC "-//W3C//DTD SVG 1.1//EN" "http://www.w3.org/Graphics/SVG/1.1/DTD/svg11.dtd">
<svg t="1752504945813" class="icon" viewBox="0 0 1024 1024" version="1.1"
    xmlns="http://www.w3.org/2000/svg" p-id="2353"
    xmlns:xlink="http://www.w3.org/1999/xlink" width="200" height="200">
    <path d="M182.800043 386.275556v251.448888c40.732444 14.654578 65.319822 56.411022 58.493155 99.373512l215.6544 125.178311a89.156267 89.156267 0 0 1 55.057067-18.944c20.764444 0 39.844978 7.076978 55.068444 18.978133l215.665778-125.212444c-6.826667-42.962489 17.760711-84.718933 58.504533-99.373512v-251.448888c-40.7552-14.6432-65.353956-56.399644-58.527288-99.373512L567.061732 161.723733a89.156267 89.156267 0 0 1-55.057067 18.944 89.019733 89.019733 0 0 1-55.068445-18.978133L241.28182 286.902044c6.826667 42.962489-17.760711 84.718933-58.504533 99.373512h0.034133zM599.499776 110.967467l211.854222 123.016533A89.486222 89.486222 0 0 1 910.226887 219.704889a90.430578 90.430578 0 0 1 50.8928 86.448355 90.305422 90.305422 0 0 1-60.0064 80.327112v251.027911a90.339556 90.339556 0 0 1 60.165689 80.338489A90.464711 90.464711 0 0 1 910.340665 804.408889a89.508978 89.508978 0 0 1-98.986667-14.392889L599.499776 913.032533a90.601244 90.601244 0 0 1-36.738844 95.175111 89.452089 89.452089 0 0 1-101.512534 0 90.601244 90.601244 0 0 1-36.750222-95.175111L212.678087 790.016a89.486222 89.486222 0 0 1-98.895644 14.267733A90.430578 90.430578 0 0 1 62.878265 717.824 90.305422 90.305422 0 0 1 122.884665 637.496889V386.491733a90.339556 90.339556 0 0 1-60.165689-80.338489A90.464711 90.464711 0 0 1 113.668665 219.591111a89.508978 89.508978 0 0 1 98.986667 14.392889L424.509554 110.967467a90.601244 90.601244 0 0 1 36.738844-95.175111 89.452089 89.452089 0 0 1 101.512534 0 90.601244 90.601244 0 0 1 36.750222 95.175111zM512.004665 662.607644c82.716444 0 149.777067-67.424711 149.777067-150.607644 0-83.171556-67.060622-150.607644-149.777067-150.607644S362.227598 428.828444 362.227598 512c0 83.171556 67.060622 150.607644 149.777067 150.607644z m0 30.116978a179.552711 179.552711 0 0 1-155.659378-90.362311 181.589333 181.589333 0 0 1 0-180.724622A179.552711 179.552711 0 0 1 512.004665 331.275378c99.259733 0 179.723378 80.918756 179.723378 180.724622S611.264398 692.724622 512.004665 692.724622z m0-90.362311a89.770667 89.770667 0 0 1-77.824-45.169778 90.794667 90.794667 0 0 1 0-90.373689 89.770667 89.770667 0 0 1 77.824-45.181155c49.629867 0 89.861689 40.459378 89.861689 90.362311s-40.231822 90.362311-89.861689 90.362311z m-262.917689 42.655289l59.824356-40.118044a14.927644 14.927644 0 0 1 20.400355 4.425955c4.482844 6.781156 2.798933 15.917511-3.811555 20.627911l-59.812978 40.095289a14.927644 14.927644 0 0 1-20.400356-4.437333 15.109689 15.109689 0 0 1 3.800178-20.627911v0.034133z m525.744356 0c6.405689 4.778667 7.964444 13.767111 3.538488 20.445867a14.927644 14.927644 0 0 1-20.138666 4.585244l-59.812978-40.095289a15.109689 15.109689 0 0 1-3.800178-20.627911 14.927644 14.927644 0 0 1 20.388978-4.437333l59.824356 40.095289v0.034133zM490.978532 229.034667a15.018667 15.018667 0 0 1 14.882133-15.1552 15.018667 15.018667 0 0 1 15.075555 14.973155l0.386845 72.283022a15.018667 15.018667 0 0 1-14.904889 15.132445 15.018667 15.018667 0 0 1-15.0528-14.973156l-0.386844-72.2944v0.022756z" fill="currentColor" p-id="2354"></path>
</svg>