<svg width="33.000000" height="42.000000" viewBox="0 0 33 42" fill="none" xmlns="http://www.w3.org/2000/svg" xmlns:xlink="http://www.w3.org/1999/xlink">
	<desc>
			Created with Pixso.
	</desc>
	<defs/>
	<path id="形状" d="M1.5 0L31.5 0C32.3296 0 33 0.670319 33 1.5L33 40.5C33 41.3297 32.3296 42 31.5 42L1.5 42C0.67041 42 0 41.3297 0 40.5L0 1.5C0 0.670319 0.67041 0 1.5 0ZM22.6687 26.25L29.625 26.25L29.625 3.375L3.375 3.375L3.375 26.25L10.3267 26.25L10.5703 27.4078C11.1375 30.2109 13.6313 32.25 16.5 32.25C19.3687 32.25 21.8625 30.2109 22.425 27.4078L22.6687 26.25ZM7.5 12.9844L25.5 12.9844C25.7063 12.9844 25.875 12.8156 25.875 12.6094L25.875 10.3594C25.875 10.1531 25.7063 9.98438 25.5 9.98438L7.5 9.98438C7.2937 9.98438 7.125 10.1531 7.125 10.3594L7.125 12.6094C7.125 12.8156 7.2937 12.9844 7.5 12.9844ZM25.5 20.4844L7.5 20.4844C7.2937 20.4844 7.125 20.3156 7.125 20.1094L7.125 17.8594C7.125 17.6531 7.2937 17.4844 7.5 17.4844L25.5 17.4844C25.7063 17.4844 25.875 17.6531 25.875 17.8594L25.875 20.1094C25.875 20.3156 25.7063 20.4844 25.5 20.4844ZM3.375 29.2031L3.375 38.625L29.625 38.625L29.625 29.2031L25.0359 29.2031C24.4922 30.7406 23.5359 32.1234 22.2656 33.1734C20.6484 34.5141 18.6001 35.25 16.5 35.25C14.3999 35.25 12.3516 34.5094 10.7344 33.1734C9.46411 32.1234 8.50781 30.7406 7.96411 29.2031L3.375 29.2031Z" clip-rule="evenodd" fill="#4462FC" fill-opacity="0.730000" fill-rule="evenodd"/>
</svg>
