<?xml version="1.0" standalone="no"?><!DOCTYPE svg PUBLIC "-//W3C//DTD SVG 1.1//EN" "http://www.w3.org/Graphics/SVG/1.1/DTD/svg11.dtd">
<svg t="1768132429855" class="icon" viewBox="0 0 1024 1024" version="1.1"
    xmlns="http://www.w3.org/2000/svg" p-id="3374"
    xmlns:xlink="http://www.w3.org/1999/xlink" width="200" height="200">
    <path d="M520.273 5.877c88.07 0 167.3 18.596 235.26 52.803l-0.01 0.013c-18.304 25.627-43.188 46.616-72.509 60.824-48.513-18.726-103.082-28.648-162.741-28.648-245.734 0-411.75 192.502-411.75 464.576 0 119.15 30.703 227.226 86.927 309.98l1.711 2.5 1.098 1.56 3.126-4.195c11.905-15.393 25.39-29.877 40.288-43.29l1.401-1.255 7.872-6.803c-27.594-53.496-47.391-116.043-57.739-184.498l-0.288-1.955-0.046-0.282a712.52 712.52 0 0 1-2.222-16.333c-5.217-41.962-4.186-83.24 2.91-122.713l0.3-1.644 8.002-43.427 43.088 9.662c20.504 4.598 41.597 6.998 63.053 7.118l1.695 0.004 3.446-0.02c112.45-1.293 212.269-65.844 257.791-163.255l1.363-2.961 18.545-40.943 39.84 20.809c127.514 66.602 212.279 192.979 221.625 335.77l0.26 4.332 0.231 4.24-2.378 15.673c-10.999 67.724-31.235 129.523-59.087 182.36l7.867 6.888c11.818 10.721 22.741 22.118 32.682 34.11l1.189 1.442 4.026 5.09 3.047-4.4c55.874-84.078 88.039-192.392 91.092-308.495l0.084-3.52 0.155-14.72c0-70.901-11.374-135.316-32.785-191.677l-0.012 0.007c13.106-29.487 33.936-55.014 60.21-74.301 37.344 76.082 57.58 166.021 57.58 265.972 0 165.887-52.76 321.247-148.514 429.913l-2.914 3.278-42.423 47.295-27.516-57.266c-11.841-24.644-29.072-47.584-50.815-67.767-57.768 71.197-134.058 113.902-221.59 114.501-89.43 0.606-167.103-42.928-225.336-115.994-23.786 21.679-42.3 46.636-54.445 73.524l-0.482 1.076-26.039 58.585-43.816-46.8C75.99 869.45 23.53 720.414 23.53 555.444c0-316.45 201.044-549.568 496.743-549.568zM627.28 370.524l-1.685 2.79C558.866 478.32 440.443 544.865 309.7 544.865a385.35 385.35 0 0 1-25.82-0.863l-2.335-0.164-8.772-0.805-0.305 7.137a332.954 332.954 0 0 0 1.004 35.406l0.178 2.109 1.345 12.703 0.326 2.586 0.337 2.579 0.34 2.523 0.206 1.475 0.266 1.886c0.115 0.803 0.231 1.605 0.349 2.407 10.462 71.21 32.923 136.033 64.745 187.38l0.967 1.553 4.38 7.002C392.1 877.76 453.688 917.7 522.12 917.241c66.932-0.462 127.375-39.267 172.378-105.03l5.355-8.374c31.611-49.375 54.483-111.703 66.096-180.46 0.211-1.25 0.419-2.5 0.622-3.754l0.31-1.921 0.453-2.899 0.75-5.002-0.686 4.366-0.43-6.266c-8.04-91.82-55.765-174.739-129.263-229.852l-2.235-1.662-8.189-5.863z m225.465-304.57l14.01 38.023c9.207 21.832 26.859 39.466 49.314 49.264l37.994 13.986c24.85 9.151 24.754 24.037 0 33.173l-37.994 13.986c-22.44 9.864-40.08 27.518-49.315 49.355l-14.01 38.023c-9.11 24.86-24.016 24.86-33.19 0l-14.01-38.023c-9.262-21.82-26.893-39.466-49.315-49.355L718.236 200.4c-24.85-9.151-24.85-24.037 0-33.173l37.994-13.986c22.414-9.854 40.047-27.469 49.315-49.264l14.01-38.023c9.206-24.86 24.016-24.769 33.19 0zM98.106 14.956l8.238 22.414a55.738 55.738 0 0 0 29.032 29.104l22.358 8.259c14.572 5.443 14.572 14.155 0 19.598l-22.358 8.258a55.342 55.342 0 0 0-29.032 29.104l-8.238 22.414c-5.43 14.609-14.12 14.609-19.55 0l-8.237-22.414a55.342 55.342 0 0 0-29.032-29.104L18.93 94.331c-14.572-5.443-14.572-14.155 0-19.598l22.358-8.259A55.342 55.342 0 0 0 70.32 37.37l8.238-22.414c5.43-14.608 14.12-14.608 19.549 0z" fill="currentColor" p-id="3375"></path>
</svg>