<?xml version="1.0" standalone="no"?><!DOCTYPE svg PUBLIC "-//W3C//DTD SVG 1.1//EN" "http://www.w3.org/Graphics/SVG/1.1/DTD/svg11.dtd">
<svg t="1768132322266" class="icon" viewBox="0 0 1024 1024" version="1.1"
    xmlns="http://www.w3.org/2000/svg" p-id="2485"
    xmlns:xlink="http://www.w3.org/1999/xlink" width="200" height="200">
    <path d="M866.969245 442.162758c26.111974 0 47.308753 20.838379 47.308753 46.591953 0 202.751797-155.084645 369.86843-354.918045 392.908407v95.743905c0 25.753574-21.196779 46.591953-47.359953 46.591953a47.052753 47.052753 0 0 1-47.103953-42.086358l-0.2048-4.454395V881.663118C264.755447 858.623141 109.670802 691.455309 109.670802 488.703511c0-25.702374 21.196779-46.540753 47.308753-46.540753s47.359953 20.838379 47.359953 46.591953c0 167.065433 137.727862 302.540497 307.609292 302.540498s307.609292-135.475065 307.609292-302.591698c0-25.702374 21.196779-46.540753 47.359953-46.540753zM512 0c114.073486 0 207.154993 88.166312 212.735787 199.014201l0.256 10.44479V511.999488c0 115.711884-95.385505 209.407791-212.991787 209.407791-114.073486 0-207.154993-88.115112-212.735787-198.963001L299.008213 511.999488V209.407791C299.008213 93.849506 394.393718 0 512 0z m0 93.081507c-62.617537 0-113.868686 47.871952-118.067082 108.390292l-0.256 7.987192V511.999488c0 64.255936 52.991947 116.377484 118.323082 116.377484 62.617537 0 113.868686-47.871952 118.067082-108.390292L630.271882 511.999488V209.407791c0-64.204736-52.991947-116.326284-118.323082-116.326284z" fill="currentColor" p-id="2486"></path>
</svg>