<svg viewBox="0 0 24 24" xmlns="http://www.w3.org/2000/svg" xmlns:xlink="http://www.w3.org/1999/xlink" width="24.000000" height="24.000000" fill="none">
	<rect id="麦克风 1" width="24.000000" height="24.000000" x="0.000000" y="0.000000" />
	<path id="矢量 34" d="M18.7905 8.54982C18.7412 8.54982 18.6925 8.55462 18.6442 8.56423C18.5959 8.57384 18.549 8.58807 18.5035 8.60691C18.458 8.62576 18.4147 8.64886 18.3738 8.67622C18.3328 8.70358 18.295 8.73467 18.2601 8.76949C18.2253 8.80431 18.1942 8.8422 18.1669 8.88314C18.1395 8.92409 18.1164 8.96731 18.0976 9.01281C18.0787 9.0583 18.0645 9.1052 18.0549 9.1535C18.0453 9.2018 18.0405 9.25057 18.0405 9.29982L18.0405 11.4418C18.0405 14.4718 15.33 16.9363 12 16.9363C8.66997 16.9363 5.95947 14.4703 5.95947 11.4418L5.95947 9.21582C5.95947 9.16657 5.95467 9.1178 5.94506 9.0695C5.93545 9.0212 5.92123 8.97431 5.90238 8.92881C5.88354 8.88331 5.86043 8.84009 5.83307 8.79914C5.80572 8.7582 5.77462 8.72031 5.7398 8.68549C5.70498 8.65067 5.6671 8.61958 5.62615 8.59222C5.5852 8.56486 5.54198 8.54176 5.49649 8.52291C5.45099 8.50407 5.40409 8.48984 5.35579 8.48023C5.30749 8.47062 5.25872 8.46582 5.20947 8.46582C5.16023 8.46582 5.11145 8.47062 5.06315 8.48023C5.01486 8.48984 4.96796 8.50407 4.92246 8.52291C4.87696 8.54176 4.83374 8.56486 4.7928 8.59222C4.75185 8.61958 4.71396 8.65067 4.67914 8.68549C4.64432 8.72031 4.61323 8.7582 4.58587 8.79914C4.55851 8.84009 4.53541 8.88331 4.51656 8.92881C4.49772 8.97431 4.48349 9.0212 4.47388 9.0695C4.46428 9.1178 4.45947 9.16657 4.45947 9.21582L4.45947 11.4418C4.45947 15.1423 7.58247 18.1498 11.5065 18.3898L11.5065 21.0028L8.38197 21.0028C8.00397 21.0028 7.69797 21.3388 7.69797 21.7543C7.69797 22.1683 8.00397 22.5028 8.38197 22.5028L15.8595 22.5028C16.236 22.5028 16.5435 22.1683 16.5435 21.7543C16.5435 21.3388 16.236 21.0028 15.8595 21.0028L13.0065 21.0028L13.0065 18.3433C16.686 17.8798 19.5405 14.9803 19.5405 11.4418L19.5405 9.29982C19.5405 8.88432 19.206 8.54982 18.7905 8.54982L18.7905 8.54982Z" fill="currentColor" fill-rule="nonzero" />
	<path id="矢量 35" d="M12.945 11.7662C12.945 11.8429 12.9525 11.9189 12.9675 11.9941C12.9824 12.0694 13.0046 12.1424 13.034 12.2133C13.0633 12.2842 13.0993 12.3515 13.1419 12.4153C13.1846 12.4791 13.233 12.5382 13.2873 12.5924C13.3415 12.6467 13.4005 12.6951 13.4643 12.7377C13.5281 12.7804 13.5955 12.8163 13.6663 12.8457C13.7372 12.8751 13.8103 12.8972 13.8855 12.9122C13.9608 12.9272 14.0368 12.9347 14.1135 12.9347C14.1902 12.9347 14.2662 12.9272 14.3415 12.9122C14.4167 12.8972 14.4898 12.8751 14.5607 12.8457C14.6316 12.8163 14.6989 12.7804 14.7627 12.7377C14.8265 12.6951 14.8855 12.6467 14.9398 12.5924C14.994 12.5382 15.0425 12.4791 15.0851 12.4153C15.1277 12.3515 15.1637 12.2842 15.1931 12.2133C15.2224 12.1424 15.2446 12.0694 15.2596 11.9941C15.2745 11.9189 15.282 11.8429 15.282 11.7662C15.282 11.6894 15.2745 11.6134 15.2596 11.5382C15.2446 11.4629 15.2224 11.3899 15.1931 11.319C15.1637 11.2481 15.1277 11.1808 15.0851 11.117C15.0425 11.0532 14.994 10.9942 14.9398 10.9399C14.8855 10.8856 14.8265 10.8372 14.7627 10.7946C14.6989 10.752 14.6316 10.716 14.5607 10.6866C14.4898 10.6572 14.4167 10.6351 14.3415 10.6201C14.2662 10.6051 14.1902 10.5977 14.1135 10.5977C14.0368 10.5977 13.9608 10.6051 13.8855 10.6201C13.8103 10.6351 13.7372 10.6572 13.6663 10.6866C13.5955 10.716 13.5281 10.752 13.4643 10.7946C13.4005 10.8372 13.3415 10.8856 13.2873 10.9399C13.233 10.9942 13.1846 11.0532 13.1419 11.117C13.0993 11.1808 13.0633 11.2481 13.034 11.319C13.0046 11.3899 12.9824 11.4629 12.9675 11.5382C12.9525 11.6134 12.945 11.6894 12.945 11.7662Z" opacity="0" fill="currentColor" fill-rule="nonzero" />
	<path id="矢量 36" d="M12.1199 -0.361816C11.9674 -0.36162 11.8152 -0.353958 11.6634 -0.33883C11.5116 -0.323703 11.3608 -0.301182 11.2112 -0.271267C11.0616 -0.241353 10.9139 -0.204189 10.7679 -0.159776C10.6219 -0.115362 10.4785 -0.0639122 10.3376 -0.00542608C10.1967 0.0530601 10.059 0.118302 9.92447 0.190299C9.78996 0.262296 9.6593 0.340703 9.53249 0.42552C9.40567 0.510337 9.28331 0.601156 9.1654 0.697978C9.0475 0.7948 8.93461 0.89716 8.82675 1.00506C8.71889 1.11295 8.61656 1.22587 8.51978 1.34381C8.423 1.46175 8.33222 1.58414 8.24744 1.71098C8.16266 1.83782 8.0843 1.96851 8.01235 2.10304C7.94039 2.23757 7.87519 2.3753 7.81675 2.51623C7.75831 2.65716 7.70691 2.80061 7.66254 2.94658C7.61818 3.09255 7.58106 3.24035 7.55119 3.38996C7.52133 3.53957 7.49886 3.69029 7.48378 3.84211C7.4687 3.99393 7.46108 4.14612 7.46094 4.29868L7.46094 9.24569C7.46108 9.39825 7.4687 9.55044 7.48378 9.70226C7.49886 9.85408 7.52133 10.0048 7.55119 10.1544C7.58106 10.304 7.61818 10.4518 7.66254 10.5978C7.70691 10.7438 7.75831 10.8872 7.81675 11.0281C7.8752 11.1691 7.94039 11.3068 8.01235 11.4413C8.0843 11.5759 8.16267 11.7065 8.24744 11.8334C8.33222 11.9602 8.423 12.0826 8.51978 12.2006C8.61656 12.3185 8.71889 12.4314 8.82675 12.5393C8.93461 12.6472 9.0475 12.7496 9.1654 12.8464C9.28331 12.9432 9.40567 13.034 9.53249 13.1188C9.6593 13.2037 9.78996 13.2821 9.92447 13.3541C10.059 13.4261 10.1967 13.4913 10.3376 13.5498C10.4785 13.6083 10.6219 13.6597 10.7679 13.7041C10.9139 13.7486 11.0616 13.7857 11.2112 13.8156C11.3608 13.8455 11.5116 13.8681 11.6634 13.8832C11.8152 13.8983 11.9674 13.906 12.1199 13.9062C12.2726 13.906 12.4248 13.8984 12.5767 13.8833C12.7285 13.8683 12.8793 13.8458 13.029 13.8159C13.1786 13.786 13.3265 13.7489 13.4725 13.7045C13.6185 13.6601 13.762 13.6087 13.903 13.5503C14.0439 13.4918 14.1817 13.4266 14.3163 13.3546C14.4509 13.2826 14.5816 13.2042 14.7085 13.1194C14.8354 13.0346 14.9578 12.9438 15.0758 12.847C15.1937 12.7502 15.3067 12.6478 15.4146 12.5399C15.5226 12.432 15.6249 12.3191 15.7218 12.2012C15.8187 12.0832 15.9095 11.9608 15.9943 11.834C16.0792 11.7071 16.1576 11.5764 16.2296 11.4419C16.3017 11.3073 16.3669 11.1696 16.4254 11.0286C16.4839 10.8876 16.5354 10.7442 16.5798 10.5982C16.6243 10.4522 16.6614 10.3043 16.6914 10.1547C16.7213 10.005 16.7438 9.85426 16.7589 9.7024C16.7741 9.55054 16.7817 9.3983 16.7819 9.24569L16.7819 4.29868C16.7818 4.14606 16.7742 3.9938 16.7591 3.84192C16.744 3.69004 16.7215 3.53927 16.6916 3.38959C16.6617 3.23992 16.6246 3.09207 16.5802 2.94604C16.5358 2.80002 16.4843 2.65652 16.4258 2.51554C16.3673 2.37456 16.3021 2.23679 16.2301 2.10222C16.1581 1.96764 16.0796 1.83692 15.9948 1.71004C15.91 1.58317 15.8191 1.46075 15.7223 1.3428C15.6254 1.22484 15.523 1.11191 15.4151 1.004C15.3071 0.896092 15.1942 0.793729 15.0762 0.69691C14.9582 0.600091 14.8357 0.509281 14.7088 0.42448C14.5819 0.33968 14.4512 0.261296 14.3166 0.189329C14.182 0.117361 14.0442 0.0521567 13.9032 -0.00628546C13.7622 -0.0647276 13.6187 -0.116126 13.4726 -0.160482C13.3266 -0.204837 13.1787 -0.241936 13.0291 -0.271778C12.8794 -0.301621 12.7286 -0.324063 12.5767 -0.339106C12.4248 -0.354148 12.2726 -0.361718 12.1199 -0.361816ZM15.2819 4.96618L8.96094 4.96618L8.96094 4.29868C8.96094 2.55568 10.3784 1.13818 12.1199 1.13818C12.2234 1.13828 12.3267 1.14344 12.4297 1.15367C12.5327 1.1639 12.6349 1.17914 12.7364 1.1994C12.8379 1.21966 12.9382 1.24483 13.0372 1.27493C13.1362 1.30502 13.2336 1.33989 13.3292 1.37953C13.4248 1.41918 13.5182 1.4634 13.6095 1.51221C13.7008 1.56102 13.7894 1.61418 13.8755 1.67168C13.9615 1.72919 14.0446 1.79077 14.1246 1.85643C14.2046 1.92208 14.2812 1.99149 14.3544 2.06466C14.4276 2.13783 14.4971 2.2144 14.5627 2.29439C14.6284 2.37437 14.6901 2.45737 14.7476 2.5434C14.8052 2.62943 14.8584 2.71806 14.9072 2.80931C14.9561 2.90056 15.0003 2.99398 15.04 3.08957C15.0797 3.18515 15.1146 3.28246 15.1448 3.38147C15.1749 3.48049 15.2001 3.58074 15.2204 3.68223C15.2407 3.78372 15.256 3.88596 15.2663 3.98895C15.2766 4.09194 15.2818 4.19518 15.2819 4.29868L15.2819 4.96618Z" opacity="0" fill="currentColor" fill-rule="nonzero" />
	<path id="合并" d="M11.247 9.50191L11.247 13.0005L12.247 13.0005L12.247 9.50191L16.5137 9.50191L16.5137 8.50191L12.247 8.50191L12.247 5.00049L11.247 5.00049L11.247 8.50191L7.51373 8.50191L7.51373 9.50191L11.247 9.50191Z" fill="currentColor" fill-rule="evenodd" />
</svg>
