<svg viewBox="0 0 22.9697 24"
	xmlns="http://www.w3.org/2000/svg"
	xmlns:xlink="http://www.w3.org/1999/xlink" width="22.969727" height="24.000000" fill="none">
	<rect id="文本 1" width="22.969696" height="24.000000" x="0.000000" y="0.000000" />
	<path id="矢量 85" d="M8.95872 3.71873C9.35018 3.71873 9.66757 3.38711 9.66757 2.97809L9.66757 2.25553C9.66757 1.84652 9.35018 1.51489 8.95872 1.51489C8.56726 1.51489 8.24988 1.84652 8.24988 2.25553L8.24988 2.97809C8.24988 3.38711 8.56726 3.71873 8.95872 3.71873Z" fill="currentColor" fill-rule="nonzero" />
	<path id="矢量 86" d="M14.0187 3.71873C14.4101 3.71873 14.7275 3.38711 14.7275 2.97809L14.7275 2.25553C14.7275 1.84652 14.4101 1.51489 14.0187 1.51489C13.6272 1.51489 13.3098 1.84652 13.3098 2.25553L13.3098 2.97809C13.3098 3.38711 13.6272 3.71873 14.0187 3.71873Z" fill="currentColor" fill-rule="nonzero" />
	<path id="矢量 87" d="M9.58415 5.38056C9.83855 5.8085 10.5368 6.53274 11.5394 6.53274C12.5371 6.53274 13.2439 5.81392 13.5043 5.38924C13.7134 5.04786 13.6186 4.59833 13.2945 4.37533C12.9708 4.15269 12.5326 4.24742 12.315 4.58291C12.312 4.58761 12.006 5.05148 11.5394 5.05148C11.0856 5.05148 10.8034 4.6221 10.7843 4.59207C10.5763 4.24997 10.1426 4.14629 9.81225 4.36063C9.47962 4.57653 9.37752 5.03316 9.58415 5.38056Z" fill="currentColor" fill-rule="nonzero" />
	<path id="矢量 88" d="M11.1805 21.0183L5.81799 21.0183C4.90598 21.0183 4.16403 20.2431 4.16403 19.2901L4.16403 4.97115C4.16403 4.01823 4.90598 3.243 5.81799 3.243C6.20945 3.243 6.52684 2.91138 6.52684 2.50236C6.52684 2.09334 6.20945 1.76172 5.81799 1.76172C4.12423 1.76172 2.74634 3.20142 2.74634 4.97115L2.74634 19.2901C2.74634 21.0599 4.12423 22.4996 5.81799 22.4996L11.1805 22.4996C11.5719 22.4996 11.8893 22.1679 11.8893 21.7589C11.8893 21.3499 11.5719 21.0183 11.1805 21.0183Z" fill="currentColor" fill-rule="nonzero" />
	<path id="矢量 89" d="M20.2311 4.97115C20.2311 3.20141 18.853 1.76172 17.1594 1.76172C16.7678 1.76172 16.4506 2.09334 16.4506 2.50236C16.4506 2.91138 16.7678 3.243 17.1594 3.243C18.0713 3.243 18.8134 4.01823 18.8134 4.97115L18.8134 15.0932C18.8134 15.1176 18.818 15.1406 18.8202 15.1643C18.7493 15.294 18.5695 15.5069 18.1451 15.5069L14.7751 15.5069C13.7343 15.5069 12.6702 15.7435 12.6702 17.4983L12.6702 20.6377C12.6702 21.5422 13.0086 22.1379 13.6782 22.4095C13.8329 22.4715 13.9805 22.5002 14.1235 22.5002C14.5786 22.5002 14.9881 22.2097 15.4341 21.7787C15.446 21.7673 15.4575 21.7553 15.4687 21.7429C20.231 16.4643 20.231 15.6182 20.231 15.3401C20.231 15.2956 20.227 15.2519 20.2199 15.2091C20.2256 15.1711 20.231 15.1329 20.231 15.0932L20.231 4.97115L20.2311 4.97115ZM14.4543 20.7079C14.2994 20.8561 14.1956 20.9369 14.1323 20.9802C14.1148 20.9348 14.0879 20.8335 14.0879 20.6377L14.0879 17.4983C14.0879 17.1612 14.1351 17.0667 14.1314 17.0667C14.1314 17.0667 14.1314 17.0667 14.1313 17.0667C14.1517 17.0525 14.2717 16.9882 14.7752 16.9882L17.6172 16.9882C16.7568 18.0783 15.564 19.4769 14.4543 20.7079Z" fill="currentColor" fill-rule="nonzero" />
	<path id="矢量 90" d="M16.687 12.2666L6.29051 12.2666C5.89905 12.2666 5.58167 12.5982 5.58167 13.0072C5.58167 13.4163 5.89905 13.7479 6.29051 13.7479L16.687 13.7479C17.0786 13.7479 17.3958 13.4163 17.3958 13.0072C17.3958 12.5982 17.0786 12.2666 16.687 12.2666Z" fill="currentColor" fill-rule="nonzero" />
	<path id="矢量 91" d="M16.687 8.56323L6.29051 8.56323C5.89905 8.56323 5.58167 8.89486 5.58167 9.30387C5.58167 9.71289 5.89905 10.0445 6.29051 10.0445L16.687 10.0445C17.0786 10.0445 17.3958 9.71289 17.3958 9.30387C17.3958 8.89486 17.0786 8.56323 16.687 8.56323Z" fill="currentColor" fill-rule="nonzero" />
</svg>
