<svg viewBox="0 0 25 25" xmlns="http://www.w3.org/2000/svg" xmlns:xlink="http://www.w3.org/1999/xlink" width="25.000000" height="25.000000" fill="none">
	<rect id="账户 1" width="25.000000" height="25.000000" x="0.000000" y="0.000000" />
	<path id="矢量 63" d="M19.5254 6.0542L4.49365 6.0542C2.56738 6.0542 1 7.62158 1 9.54785L1 19.3184C1 21.2446 2.56738 22.812 4.49365 22.812L19.5254 22.812C21.4517 22.812 23.019 21.2446 23.019 19.3184L23.019 9.54785C23.019 7.62158 21.4517 6.0542 19.5254 6.0542L19.5254 6.0542ZM19.5254 20.75L5.49365 20.75C4.15332 20.75 3.06201 20.6587 3.06201 19.3184L3.06201 9.54785C3.06201 8.20752 4.15332 8.11621 5.49365 8.11621L18.5254 8.11621C19.8657 8.11621 20.957 8.20752 20.957 9.54785L20.957 11.8672C20.957 10.7173 20.957 10.7173 19.2788 10.7173L17.8042 10.7173C15.7534 10.7173 14.0859 12.3848 14.0859 14.4355C14.0859 16.4863 15.7534 18.1538 17.8042 18.1538L19.2788 18.1538C20.3311 18.1538 20.2773 18.1538 20.957 18.1538L20.957 19.3208C20.9546 20.6587 19.8657 20.75 18.5254 20.75L19.5254 20.75ZM21.9326 14.4331C21.9326 15.898 20.7412 17.0894 19.2764 17.0894L17.8018 17.0894C16.3369 17.0894 15.1455 15.898 15.1455 14.4331C15.1455 12.9683 16.3369 11.7769 17.8018 11.7769L19.2764 11.7769C20.7412 11.7793 21.9326 12.9683 21.9326 14.4331ZM4.47168 4.46484L19.5449 4.46484C19.9478 4.46484 20.2773 4.13525 20.2773 3.73242C20.2773 3.32959 19.9478 3 19.5449 3L4.47168 3C4.06885 3 3.73926 3.32959 3.73926 3.73242C3.73926 4.13525 4.06885 4.46484 4.47168 4.46484Z" fill="currentColor" fill-rule="nonzero" />
	<path id="矢量 63" d="M19.5449 4.46484L4.47168 4.46484C4.06885 4.46484 3.73926 4.13525 3.73926 3.73242C3.73926 3.32959 4.06885 3 4.47168 3L19.5449 3C19.9478 3 20.2773 3.32959 20.2773 3.73242C20.2773 4.13525 19.9478 4.46484 19.5449 4.46484ZM4.49365 6.0542L19.5254 6.0542C21.4517 6.0542 23.019 7.62158 23.019 9.54785L23.019 19.3184C23.019 21.2446 21.4517 22.812 19.5254 22.812L4.49365 22.812C2.56738 22.812 1 21.2446 1 19.3184L1 9.54785C1 7.62158 2.56738 6.0542 4.49365 6.0542ZM3.94236 7.11515C4.12152 7.07451 4.30528 7.0542 4.49365 7.0542L19.5254 7.0542C19.7138 7.0542 19.8975 7.07452 20.0767 7.11515C20.2186 7.14734 20.3576 7.19227 20.4938 7.24996C20.6275 7.30663 20.7545 7.37379 20.8747 7.45145C21.0225 7.54701 21.1601 7.65845 21.2875 7.78578C21.4148 7.9131 21.5262 8.05068 21.6218 8.19853C21.6994 8.31873 21.7666 8.4457 21.8233 8.57947C21.881 8.71562 21.9259 8.85466 21.9581 8.99659C21.9987 9.17574 22.019 9.35949 22.019 9.54785L22.019 12.0175C21.9738 11.9663 21.927 11.9162 21.8785 11.8672L21.957 11.8672L21.957 9.54785C21.957 9.03448 21.8425 8.59466 21.6134 8.2284C21.5464 8.12124 21.4708 8.02195 21.3866 7.93054C21.1864 7.71295 20.9377 7.53994 20.6406 7.4115C20.3454 7.28386 19.9891 7.19887 19.5717 7.15653C19.3068 7.12965 18.958 7.11621 18.5254 7.11621L5.49365 7.11621C5.06102 7.11621 4.71224 7.12965 4.44732 7.15653C4.02997 7.19887 3.67367 7.28386 3.3784 7.4115C3.0813 7.53994 2.83263 7.71295 2.6324 7.93054C2.54827 8.02196 2.47269 8.12124 2.40567 8.2284C2.17656 8.59466 2.06201 9.03448 2.06201 9.54785L2.06201 19.3184C2.06201 19.8317 2.17656 20.2715 2.40567 20.6378C2.47269 20.745 2.54827 20.8443 2.63239 20.9357C2.83263 21.1533 3.0813 21.3263 3.3784 21.4547C3.67367 21.5823 4.02997 21.6673 4.44732 21.7097C4.71224 21.7366 5.06102 21.75 5.49365 21.75L19.5254 21.75L19.5254 21.7142C19.541 21.7127 19.5563 21.7113 19.5713 21.7097C19.9883 21.6674 20.3443 21.5826 20.6394 21.4551C20.9364 21.3269 21.185 21.1541 21.3853 20.9367C21.4693 20.8456 21.5447 20.7466 21.6117 20.6399C21.841 20.2743 21.9561 19.8346 21.957 19.3208L21.957 17.1538L21.7175 17.1538C21.7662 17.1099 21.8141 17.0645 21.8609 17.0177C21.9156 16.9629 21.9683 16.9069 22.019 16.8496L22.019 19.3184C22.019 19.5067 21.9987 19.6905 21.9581 19.8696C21.9259 20.0115 21.881 20.1506 21.8233 20.2867C21.7666 20.4205 21.6995 20.5475 21.6218 20.6676C21.5262 20.8155 21.4148 20.9531 21.2875 21.0804C21.1601 21.2078 21.0225 21.3192 20.8747 21.4148C20.7545 21.4924 20.6275 21.5596 20.4938 21.6163C20.3576 21.6739 20.2186 21.7189 20.0767 21.7511C19.8975 21.7917 19.7138 21.812 19.5254 21.812L4.49365 21.812C4.30529 21.812 4.12153 21.7917 3.94238 21.7511C3.80045 21.7189 3.66141 21.6739 3.52527 21.6163C3.3915 21.5596 3.26452 21.4924 3.14432 21.4147C2.99648 21.3192 2.8589 21.2077 2.73158 21.0804C2.60424 20.9531 2.49279 20.8155 2.39723 20.6676C2.31958 20.5474 2.25242 20.4205 2.19576 20.2867C2.13807 20.1506 2.09313 20.0116 2.06094 19.8696C2.02031 19.6905 2 19.5067 2 19.3184L2 9.54785C2 9.35948 2.02032 9.17572 2.06095 8.99656C2.09314 8.85464 2.13807 8.71561 2.19576 8.57947C2.25243 8.44571 2.3196 8.31875 2.39727 8.19856C2.49282 8.0507 2.60426 7.91311 2.73158 7.78578C2.85892 7.65844 2.99652 7.547 3.1444 7.45144C3.26457 7.37379 3.39153 7.30662 3.52527 7.24996C3.66141 7.19227 3.80044 7.14733 3.94236 7.11515ZM19.957 11.866C19.7397 11.8082 19.5116 11.7772 19.2764 11.7769L17.8018 11.7769C16.3369 11.7769 15.1455 12.9683 15.1455 14.4331C15.1455 15.898 16.3369 17.0894 17.8018 17.0894L19.2764 17.0894C20.7412 17.0894 21.9326 15.898 21.9326 14.4331C21.9326 13.205 21.0952 12.1709 19.9614 11.8672C19.9599 11.8668 19.9585 11.8664 19.957 11.866ZM19.957 10.7219C20.6402 10.7385 20.8566 10.8153 20.9252 11.1708C20.957 11.3357 20.957 11.5606 20.957 11.8672L20.957 9.54785C20.957 8.20752 19.8657 8.11621 18.5254 8.11621L5.49365 8.11621C4.15332 8.11621 3.06201 8.20752 3.06201 9.54785L3.06201 19.3184C3.06201 20.6587 4.15332 20.75 5.49365 20.75L18.5254 20.75C18.8817 20.75 19.2203 20.7435 19.5254 20.7089C20.3679 20.6133 20.9552 20.303 20.957 19.3208L20.957 18.1538L17.8042 18.1538C15.7534 18.1538 14.0859 16.4863 14.0859 14.4355C14.0859 12.3848 15.7534 10.7173 17.8042 10.7173L19.2788 10.7173C19.5448 10.7173 19.7687 10.7173 19.957 10.7219Z" fill="currentColor" fill-rule="evenodd" />
	<path id="矢量 64" d="M19.7876 12.8247C18.9893 12.8247 18.3374 13.4741 18.3374 14.2749C18.3374 15.0757 18.9868 15.7251 19.7876 15.7251C20.5884 15.7251 21.2378 15.0757 21.2378 14.2749C21.2378 13.4741 20.5884 12.8247 19.7876 12.8247ZM19.7876 14.6606C19.5776 14.6606 19.3994 14.4824 19.3994 14.2725C19.3994 14.0576 19.5728 13.8843 19.7876 13.8843C20.0024 13.8843 20.1758 14.0576 20.1758 14.2725C20.1758 14.4873 20.0024 14.6606 19.7876 14.6606Z" fill="currentColor" fill-rule="nonzero" />
</svg>
