<svg viewBox="0 0 31 31" xmlns="http://www.w3.org/2000/svg" xmlns:xlink="http://www.w3.org/1999/xlink" width="31.000000" height="31.000000" fill="none">
	<rect id="退出 (1) 1" width="31.000000" height="31.000000" x="0.000000" y="0.000000" />
	<path id="矢量 67" d="M26.1381 14.9339L22.5295 10.4201C22.3539 10.2022 22.0936 10.0811 21.8241 10.0811C21.7242 10.0811 21.6243 10.0962 21.5244 10.1325C21.1642 10.2597 20.922 10.6018 20.922 10.9832L20.922 13.6927L13.6987 13.6927C12.7027 13.6927 11.8944 14.501 11.8944 15.497C11.8944 16.493 12.7027 17.3013 13.6987 17.3013L20.919 17.3013L20.919 20.0108C20.919 20.3952 21.1611 20.7343 21.5214 20.8614C21.6183 20.8947 21.7212 20.9129 21.8211 20.9129C22.0905 20.9129 22.3509 20.7918 22.5265 20.5739L26.1381 16.0601C26.4045 15.7331 26.4045 15.2639 26.1381 14.9339ZM17.3104 23.7202L10.072 23.7202C7.2798 23.7202 7.2798 21.9119 7.2798 20.9159L7.2798 10.0811L7.2798 9.06594C7.2798 7.076 9.0881 7.27376 10.0871 7.27376L17.3073 7.27376C18.3033 7.27376 19.1116 7.46545 19.1116 6.46946C19.1116 5.47346 18.3033 4.66516 17.3073 4.66516L8.28282 4.66516C6.28781 4.66516 4.6712 6.28176 4.6712 8.27678L4.6712 22.7202C4.6712 24.7153 6.28781 26.3319 8.28282 26.3319L17.3104 26.3319C18.3064 26.3319 19.1147 25.5236 19.1147 24.5276C19.1147 23.5285 18.3064 23.7202 17.3104 23.7202L17.3104 23.7202Z" fill="currentColor" fill-rule="nonzero" />
</svg>
