<svg viewBox="0 0 22 24" xmlns="http://www.w3.org/2000/svg" xmlns:xlink="http://www.w3.org/1999/xlink" width="22.000000" height="24.000000" fill="none">
	<rect id="Generate Image" width="22.000000" height="24.000000" x="0.000000" y="0.000000" />
	<path id="Vector" d="M5.22952 0.625L4.04714 4.17214L0.5 5.35452L0.5 7.40914L4.04714 8.59152L5.22952 12.1387L7.28414 12.1387L8.46652 8.59152L12.0137 7.40914L12.0137 5.35452L8.46652 4.17214L7.28414 0.625L5.22952 0.625ZM5.93054 5.37067L6.25683 4.3918L6.58312 5.37067L7.26799 6.05554L8.24686 6.38183L7.26799 6.70812L6.58312 7.39299L6.25683 8.37186L5.93054 7.39299L5.24567 6.70812L4.2668 6.38183L5.24567 6.05554L5.93054 5.37067ZM5.17395 13.962C5.17395 14.8178 5.45319 15.6085 5.92554 16.2477C6.04838 16.414 6.18427 16.57 6.33171 16.7142C6.19545 16.8329 6.06881 16.9623 5.95313 17.1012C5.46661 17.6852 5.17395 18.4365 5.17395 19.256C5.17395 21.1167 6.68228 22.625 8.5429 22.625C9.36249 22.625 10.1137 22.3323 10.6978 21.8458C10.8367 21.7301 10.9661 21.6035 11.0847 21.4672C11.229 21.6147 11.385 21.7506 11.5512 21.8734C12.1905 22.3458 12.9811 22.625 13.837 22.625C14.6928 22.625 15.4834 22.3458 16.1227 21.8734C16.289 21.7506 16.445 21.6147 16.5892 21.4672C16.7079 21.6035 16.8373 21.7301 16.9762 21.8458C17.5602 22.3323 18.3115 22.625 19.131 22.625C20.9917 22.625 22.5 21.1167 22.5 19.256C22.5 18.4365 22.2073 17.6852 21.7208 17.1012C21.6051 16.9623 21.4785 16.8329 21.3422 16.7142C21.4897 16.57 21.6256 16.414 21.7484 16.2477C22.2208 15.6085 22.5 14.8178 22.5 13.962C22.5 13.1061 22.2208 12.3155 21.7484 11.6762C21.6256 11.51 21.4897 11.354 21.3422 11.2097C21.4785 11.0911 21.6051 10.9617 21.7208 10.8228C22.2073 10.2387 22.5 9.48749 22.5 8.6679C22.5 6.80728 20.9917 5.29895 19.131 5.29895C18.3115 5.29895 17.5602 5.59161 16.9762 6.07813C16.8373 6.19381 16.7079 6.32045 16.5892 6.45671C16.445 6.30927 16.289 6.17338 16.1227 6.05054C15.4835 5.57819 14.6928 5.29895 13.837 5.29895L13.837 7.46471C14.3092 7.46471 14.7329 7.6562 15.0412 7.97133C15.4639 8.40339 16.048 8.63912 16.6522 8.62156C17.2564 8.60399 17.8257 8.33473 18.2226 7.87886C18.4465 7.62179 18.7691 7.46471 19.131 7.46471C19.7956 7.46471 20.3342 8.0034 20.3342 8.6679C20.3342 9.02981 20.1772 9.3525 19.9201 9.57632C19.4642 9.97323 19.195 10.5426 19.1774 11.1468C19.1598 11.751 19.3956 12.335 19.8276 12.7578C20.1428 13.0661 20.3342 13.4897 20.3342 13.962C20.3342 14.4342 20.1428 14.8579 19.8276 15.1662C19.3956 15.5889 19.1598 16.173 19.1774 16.7772C19.195 17.3814 19.4642 17.9507 19.9201 18.3476C20.1772 18.5715 20.3342 18.8941 20.3342 19.256C20.3342 19.9206 19.7956 20.4592 19.131 20.4592C18.7691 20.4592 18.4465 20.3022 18.2226 20.0451C17.8257 19.5892 17.2563 19.32 16.6522 19.3024C16.048 19.2848 15.4639 19.5206 15.0412 19.9526C14.7328 20.2678 14.3092 20.4592 13.837 20.4592C13.3647 20.4592 12.9411 20.2678 12.6328 19.9526C12.21 19.5206 11.626 19.2848 11.0218 19.3024C10.4176 19.32 9.84823 19.5892 9.45132 20.0451C9.2275 20.3022 8.90481 20.4592 8.5429 20.4592C7.8784 20.4592 7.33971 19.9206 7.33971 19.256C7.33971 18.8941 7.49679 18.5715 7.75386 18.3476C8.20973 17.9507 8.47899 17.3814 8.49656 16.7772C8.51412 16.173 8.27839 15.5889 7.84633 15.1662C7.5312 14.8579 7.33971 14.4342 7.33971 13.962L5.17395 13.962Z" fill="currentColor" fill-rule="evenodd" />
	<path id="" d="M10.6262 9.91626L13.0969 9.91626L14.2468 13.8274L14.3079 13.8274L15.5066 9.91626L17.9065 9.91626L17.9065 16.8572L16.4075 16.8572L16.4075 11.3982L16.3464 11.3982L15.0061 15.5461L13.4875 15.5461L12.1667 11.3982L12.1082 11.3982L12.1082 16.8572L10.6262 16.8572L10.6262 9.91626Z" fill="currentColor" fill-rule="nonzero" />
</svg>
