<svg viewBox="0 0 22.4286 22" xmlns="http://www.w3.org/2000/svg" xmlns:xlink="http://www.w3.org/1999/xlink" width="22.428589" height="22.000000" fill="none" clip-path="url(#clipPath_99)" customframe="url(#clipPath_99)">
	<defs>
		<clipPath id="clipPath_99">
			<rect width="22.428570" height="22.000000" x="0.000000" y="0.000000" rx="5.000000" fill="rgb(255,255,255)" />
		</clipPath>
		<clipPath id="clipPath_100">
			<rect width="39.000000" height="39.000000" x="12.000000" y="-3.000000" fill="rgb(255,255,255)" />
		</clipPath>
		<clipPath id="clipPath_101">
			<rect width="13.083332" height="12.833334" x="3.364258" y="4.766663" fill="rgb(255,255,255)" />
		</clipPath>
		<clipPath id="clipPath_102">
			<rect width="13.083332" height="12.833334" x="5.233337" y="6.599976" fill="rgb(255,255,255)" />
		</clipPath>
	</defs>
	<rect id="Frame 427318673" width="22.428570" height="22.000000" x="0.000000" y="0.000000" rx="5.000000" />
	<g id="ic-menu05" opacity="0" clip-path="url(#clipPath_100)" customframe="url(#clipPath_100)">
		<rect id="ic-menu05" width="39.000000" height="39.000000" x="12.000000" y="-3.000000" opacity="0" />
		<path id="Vector" d="M12 -3L51 -3L51 36L12 36L12 -3Z" fill-rule="evenodd" />
		<path id="合并" d="M20.741 10.619C20.5822 11.9176 20.498 13.2748 20.498 14.6714C20.498 16.0678 20.5822 17.425 20.741 18.7236C17.4939 17.7915 15.3998 16.3231 15.3998 14.6713C15.3998 13.0194 17.494 11.551 20.741 10.619ZM21.3937 7.06742C15.8235 8.4631 11.9998 11.3439 11.9998 14.6713C11.9998 17.9986 15.8234 20.8794 21.3936 22.2751C22.7891 27.8466 25.6702 31.6714 28.998 31.6714C32.3257 31.6714 35.2067 27.847 36.6023 22.276C42.1744 20.8807 45.9998 17.9993 45.9998 14.6713C45.9998 11.3432 42.1744 8.46184 36.6022 7.06651C35.2066 1.49564 32.3256 -2.32861 28.998 -2.32861C25.6703 -2.32861 22.7892 1.49606 21.3937 7.06742ZM24.2215 9.89494C24.0124 11.381 23.898 12.9906 23.898 14.6714C23.898 16.3521 24.0124 17.9616 24.2214 19.4476C25.708 19.6568 27.3182 19.7713 28.9998 19.7713C30.6799 19.7713 32.289 19.657 33.7746 19.4481C33.9837 17.9619 34.098 16.3523 34.098 14.6714C34.098 12.9904 33.9837 11.3807 33.7746 9.89445C32.2889 9.68552 30.6799 9.57127 28.9998 9.57127C27.3183 9.57127 25.708 9.6857 24.2215 9.89494ZM33.0508 6.41409C31.7525 6.2554 30.3958 6.17126 28.9998 6.17126C27.6025 6.17126 26.2445 6.25555 24.9452 6.41452C25.8772 3.16638 27.3459 1.07139 28.998 1.07139C30.6501 1.07139 32.1188 3.16619 33.0508 6.41409ZM37.2549 10.6179C37.4138 11.9169 37.498 13.2745 37.498 14.6714C37.498 16.0682 37.4138 17.4257 37.255 18.7246C40.504 17.7926 42.5998 16.3237 42.5998 14.6713C42.5998 13.0188 40.504 11.5499 37.2549 10.6179ZM33.0508 22.9284C31.7526 23.0871 30.3958 23.1713 28.9998 23.1713C27.6024 23.1713 26.2445 23.087 24.9451 22.928C25.8771 26.1763 27.3458 28.2714 28.998 28.2714C30.6502 28.2714 32.1188 26.1765 33.0508 22.9284Z" fill="rgb(212,217,232)" fill-rule="evenodd" />
	</g>
	<path id="path" d="M15.0151 8.18682C15.233 8.6562 15.3888 9.12558 15.4508 9.75141C16.0107 9.87731 16.4476 10.3772 16.4476 10.9737L16.4476 11.5984C16.4476 12.1936 16.0119 12.6948 15.4496 12.8195C15.3888 13.4453 15.2634 13.9147 15.0151 14.3841C14.7036 14.9793 14.2362 15.4805 13.6131 15.7934C13.0837 16.0746 12.5226 16.2005 11.7437 16.2628C11.7284 16.3315 11.7074 16.3984 11.6808 16.4635C11.6541 16.5286 11.6222 16.591 11.585 16.6506C11.5478 16.7103 11.5059 16.7663 11.4592 16.8188C11.4125 16.8713 11.3617 16.9195 11.3069 16.9633C11.252 17.0071 11.1939 17.046 11.1325 17.0799C11.0711 17.1138 11.0072 17.1422 10.941 17.1652C10.8747 17.1882 10.8071 17.2054 10.7379 17.2169C10.6688 17.2283 10.5991 17.2338 10.5291 17.2333L9.28279 17.2333C8.69131 17.2333 8.19231 16.8263 8.06817 16.2628C7.28926 16.231 6.72941 16.0746 6.19878 15.7934C6.04881 15.7167 5.90573 15.6286 5.76956 15.5292C5.63339 15.4298 5.50579 15.3204 5.38676 15.2008C5.26774 15.0813 5.15875 14.9531 5.05981 14.8164C4.96086 14.6796 4.87317 14.5359 4.79673 14.3853C4.558 13.8896 4.41277 13.3677 4.36102 12.8195C4.29179 12.8044 4.2243 12.7836 4.15855 12.7571C4.0928 12.7306 4.02971 12.6988 3.96927 12.6616C3.90884 12.6245 3.85191 12.5826 3.79849 12.5358C3.74507 12.4891 3.6959 12.4382 3.65098 12.3832C3.60606 12.3282 3.56603 12.2698 3.53088 12.208C3.49573 12.1462 3.46595 12.0819 3.44154 12.0151C3.41714 11.9483 3.39845 11.88 3.38548 11.81C3.37251 11.7401 3.36543 11.6695 3.36426 11.5984L3.36426 10.9725C3.36426 10.3772 3.79996 9.87731 4.39267 9.75141C4.45352 9.12558 4.57888 8.6562 4.82837 8.18682C5.13994 7.59154 5.60729 7.09039 6.23042 6.77747C6.88398 6.40221 7.60082 6.27631 8.75337 6.27631L9.28279 6.27631L9.28279 5.02586C9.28279 4.68116 9.56271 4.40002 9.90592 4.40002C10.2491 4.40002 10.5291 4.68116 10.5291 5.02586L10.5291 6.27876L11.0585 6.27876C12.211 6.27876 12.9279 6.40343 13.6131 6.77991C14.2046 7.09161 14.7036 7.56099 15.0151 8.18682ZM14.5782 11.8172L14.5161 11.8172L14.5161 10.7537C14.5161 9.62673 14.3603 9.09502 14.1425 8.6562C13.8934 8.21779 13.5506 7.8735 13.1141 7.62333C12.6784 7.4033 12.149 7.24807 11.0268 7.24807L8.72173 7.24807C7.60082 7.24807 7.0714 7.40453 6.63448 7.62333C6.19878 7.8735 5.85638 8.21779 5.60729 8.6562C5.38822 9.09502 5.23365 9.62673 5.23365 10.7537L5.23365 11.8172C5.23365 12.9759 5.38944 13.4771 5.63771 13.9465C5.88762 14.3849 6.23042 14.7292 6.66613 14.9793C7.10183 15.1994 7.63125 15.3546 8.75337 15.3546L11.0585 15.3546C12.211 15.3546 12.7088 15.1981 13.1761 14.9488C13.6131 14.6982 13.9551 14.3535 14.2046 13.9147C14.4236 13.4771 14.5782 12.9442 14.5782 11.8172ZM7.4134 10.0338C7.4134 9.69152 7.69332 9.40916 8.03653 9.40916C8.37974 9.40916 8.65966 9.6903 8.65966 10.035L8.65966 12.5396C8.65966 12.883 8.37974 13.1654 8.03653 13.1654C7.99566 13.1652 7.95519 13.1611 7.91513 13.153C7.87507 13.1448 7.83617 13.1329 7.79844 13.1171C7.76071 13.1013 7.72487 13.082 7.69091 13.0592C7.65695 13.0363 7.62552 13.0104 7.59662 12.9814C7.56772 12.9524 7.5419 12.9208 7.51916 12.8867C7.49642 12.8526 7.47719 12.8166 7.46148 12.7787C7.44576 12.7408 7.43386 12.7017 7.42577 12.6615C7.41768 12.6213 7.41356 12.5806 7.4134 12.5396L7.4134 10.0338ZM11.1522 10.0338C11.1522 9.69152 11.4321 9.40916 11.7753 9.40916C12.1173 9.40916 12.3985 9.6903 12.3985 10.035L12.3985 12.5396C12.3985 12.883 12.1185 13.1654 11.7753 13.1654C11.7344 13.1652 11.694 13.1611 11.6539 13.153C11.6139 13.1448 11.575 13.1329 11.5372 13.1171C11.4995 13.1013 11.4637 13.082 11.4297 13.0592C11.3957 13.0363 11.3643 13.0104 11.3354 12.9814C11.3065 12.9524 11.2807 12.9208 11.2579 12.8867C11.2352 12.8526 11.216 12.8166 11.2003 12.7787C11.1846 12.7408 11.1726 12.7017 11.1646 12.6615C11.1565 12.6213 11.1523 12.5806 11.1522 12.5396L11.1522 10.0338Z" opacity="0" fill="rgb(212,217,232)" fill-rule="nonzero" />
	<g id="系统管理" opacity="0" clip-path="url(#clipPath_101)" customframe="url(#clipPath_101)">
		<rect id="系统管理" width="13.083332" height="12.833334" x="3.364258" y="4.766663" opacity="0" />
		<path id="path" d="M7.14618 11.6345C5.87362 11.6345 4.84637 12.6421 4.84637 13.8904C4.84637 15.1386 5.87362 16.1462 7.14618 16.1462C8.41874 16.1462 9.44598 15.1386 9.44598 13.8904L9.44598 12.2361C9.44598 11.9052 9.17001 11.6345 8.8327 11.6345L7.14618 11.6345Z" fill-rule="nonzero" stroke="rgb(212,217,232)" stroke-width="2" />
		<path id="path" d="M7.14616 16.3969C5.73561 16.3969 4.59082 15.274 4.59082 13.8904C4.59082 12.5068 5.73561 11.3839 7.14616 11.3839L8.83268 11.3839C9.31309 11.3839 9.7015 11.7648 9.7015 12.2361L9.7015 13.8904C9.7015 15.274 8.55671 16.3969 7.14616 16.3969ZM7.14616 11.8852C6.0167 11.8852 5.10189 12.7825 5.10189 13.8904C5.10189 14.9982 6.0167 15.8956 7.14616 15.8956C8.27562 15.8956 9.19043 14.9982 9.19043 13.8904L9.19043 12.2361C9.19043 12.0406 9.032 11.8852 8.83268 11.8852L7.14616 11.8852Z" opacity="0" fill="rgb(212,217,232)" fill-rule="nonzero" />
		<path id="path" d="M10.1104 13.8904L10.1104 12.2361C10.1104 11.7648 10.4988 11.3839 10.9792 11.3839L12.6657 11.3839C14.0762 11.3839 15.221 12.5068 15.221 13.8904C15.221 15.274 14.0762 16.3969 12.6657 16.3969C11.2551 16.3969 10.1104 15.274 10.1104 13.8904ZM10.6214 12.2361L10.6214 13.8904C10.6214 14.9982 11.5362 15.8956 12.6657 15.8956C13.7951 15.8956 14.71 14.9982 14.71 13.8904C14.71 12.7825 13.7951 11.8852 12.6657 11.8852L10.9792 11.8852C10.7799 11.8852 10.6214 12.0406 10.6214 12.2361Z" opacity="0" fill-rule="nonzero" stroke="rgb(212,217,232)" stroke-width="1" />
		<path id="path" d="M12.6657 10.7322C13.9383 10.7322 14.9655 9.72456 14.9655 8.47632C14.9655 7.22808 13.9383 6.22046 12.6657 6.22046C11.3932 6.22046 10.3659 7.22808 10.3659 8.47632L10.3659 10.1306C10.3659 10.4615 10.6419 10.7322 10.9792 10.7322L12.6657 10.7322Z" fill-rule="nonzero" stroke="rgb(212,217,232)" stroke-width="2" />
		<path id="path" d="M12.6657 10.9828L10.9792 10.9828C10.4988 10.9828 10.1104 10.6018 10.1104 10.1306L10.1104 8.4763C10.1104 7.0927 11.2551 5.96979 12.6657 5.96979C14.0762 5.96979 15.221 7.0927 15.221 8.4763C15.221 9.85989 14.0762 10.9828 12.6657 10.9828ZM12.6657 6.47109C11.5362 6.47109 10.6214 7.36842 10.6214 8.4763L10.6214 10.1306C10.6214 10.3261 10.7799 10.4815 10.9792 10.4815L12.6657 10.4815C13.7951 10.4815 14.71 9.58418 14.71 8.4763C14.71 7.36842 13.7951 6.47109 12.6657 6.47109Z" opacity="0" fill="rgb(63,81,181)" fill-rule="nonzero" />
		<path id="path" d="M4.84637 8.47632C4.84637 9.72456 5.87362 10.7322 7.14618 10.7322L8.8327 10.7322C9.17001 10.7322 9.44598 10.4615 9.44598 10.1306L9.44598 8.47632C9.44598 7.22808 8.41874 6.22046 7.14618 6.22046C5.87362 6.22046 4.84637 7.22808 4.84637 8.47632Z" fill-rule="nonzero" stroke="rgb(212,217,232)" stroke-width="2" />
		<path id="path" d="M8.83268 10.9828L7.14616 10.9828C5.73561 10.9828 4.59082 9.85989 4.59082 8.4763C4.59082 7.0927 5.73561 5.96979 7.14616 5.96979C8.5567 5.96979 9.7015 7.0927 9.7015 8.4763L9.7015 10.1306C9.7015 10.6018 9.31309 10.9828 8.83268 10.9828ZM7.14616 6.47109C6.0167 6.47109 5.10189 7.36842 5.10189 8.4763C5.10189 9.58418 6.0167 10.4815 7.14616 10.4815L8.83268 10.4815C9.032 10.4815 9.19043 10.3261 9.19043 10.1306L9.19043 8.4763C9.19043 7.36842 8.27562 6.47109 7.14616 6.47109Z" opacity="0" fill="rgb(63,81,181)" fill-rule="nonzero" />
		<path id="path" d="M2.2998 0C1.02725 0 0 1.00762 0 2.25586C0 3.5041 1.02725 4.51172 2.2998 4.51172C3.57236 4.51172 4.59961 3.5041 4.59961 2.25586L4.59961 0.601563C4.59961 0.270703 4.32363 0 3.98633 0L2.2998 0Z" fill-rule="nonzero" stroke="rgb(212,217,232)" stroke-width="2" transform="matrix(-1,0,0,1,15.0663,11.7333)" />
	</g>
	<g id="Generate Image " clip-path="url(#clipPath_102)" customframe="url(#clipPath_102)">
		<rect id="Generate Image " width="13.083332" height="12.833334" x="5.233337" y="6.599976" />
	</g>
	<path id="Vector" d="M14.8646 0L13.6211 3.73077L9.89028 4.97437L9.89028 7.13535L13.6211 8.37894L14.8646 12.1097L17.0256 12.1097L18.2692 8.37894L22 7.13535L22 4.97437L18.2692 3.73077L17.0256 0L14.8646 0ZM6.55881 1.4991L10.2504 1.4991L10.2504 3.77698L6.60585 3.77698C5.63025 3.77698 4.96706 3.77787 4.45443 3.81975C3.9551 3.86055 3.69975 3.93449 3.52162 4.02525C3.09301 4.24364 2.74454 4.59211 2.52615 5.02072C2.43539 5.19885 2.36144 5.45421 2.32065 5.95354C2.27876 6.46616 2.27788 7.12936 2.27788 8.10495L2.27788 13.8217L4.55576 11.9994L7.31857 14.2097L11.3894 10.1389L13.0001 11.7496L7.48763 17.262L4.55576 14.9165L2.28509 16.733C2.29093 17.0456 2.30151 17.3113 2.32065 17.5456C2.36144 18.0449 2.43539 18.3003 2.52615 18.4784C2.74454 18.907 3.09301 19.2555 3.52162 19.4738C3.69975 19.5646 3.9551 19.6386 4.45443 19.6794C4.96706 19.7212 5.63025 19.7221 6.60585 19.7221L13.8951 19.7221C14.8706 19.7221 15.5338 19.7212 16.0465 19.6794C16.5458 19.6386 16.8011 19.5646 16.9793 19.4738C17.4079 19.2555 17.7564 18.907 17.9747 18.4784C18.0655 18.3003 18.1395 18.0449 18.1803 17.5456C18.2221 17.0329 18.223 16.3697 18.223 15.3942L18.223 11.7496L20.5009 11.7496L20.5009 15.4412C20.5009 16.358 20.5009 17.1147 20.4506 17.7311C20.3983 18.3713 20.286 18.9597 20.0043 19.5125C19.5676 20.3697 18.8706 21.0667 18.0134 21.5035C17.4606 21.7851 16.8722 21.8974 16.232 21.9497C15.6156 22 14.8589 22 13.9421 22L6.55878 22C5.64198 22 4.88532 22 4.26894 21.9497C3.62875 21.8974 3.04025 21.7851 2.48749 21.5035C1.63027 21.0667 0.933324 20.3697 0.496549 19.5125C0.2149 18.9597 0.102641 18.3713 0.0503349 17.7311C-2.56207e-05 17.1147 -1.40366e-05 16.358 0 15.4412L0 8.05789C-1.40366e-05 7.14109 -2.56211e-05 6.38443 0.0503349 5.76804C0.102641 5.12785 0.2149 4.53936 0.496549 3.98659C0.933324 3.12937 1.63027 2.43243 2.48749 1.99565C3.04025 1.714 3.62875 1.60174 4.26894 1.54944C4.88533 1.49908 5.642 1.49909 6.55881 1.4991ZM15.602 4.99135L15.9451 3.9618L16.2883 4.99135L17.0087 5.71168L18.0382 6.05486L17.0087 6.39804L16.2883 7.11837L15.9451 8.14791L15.602 7.11837L14.8816 6.39804L13.8521 6.05486L14.8816 5.71168L15.602 4.99135Z" fill="currentColor" fill-rule="evenodd" />
</svg>
