<svg viewBox="0 0 23 23"
	xmlns="http://www.w3.org/2000/svg"
	xmlns:xlink="http://www.w3.org/1999/xlink" width="23.000000" height="23.000000" fill="none">
	<rect id="订单 (1) 1" width="23.000000" height="23.000000" x="0.000000" y="0.000000" />
	<path id="矢量 65" d="M11.1406 15.8125L8.26562 15.8125C7.87031 15.8125 7.54688 16.1359 7.54688 16.5312C7.54688 16.9266 7.87031 17.25 8.26562 17.25L11.1406 17.25C11.5359 17.25 11.8594 16.9266 11.8594 16.5312C11.8594 16.1359 11.5359 15.8125 11.1406 15.8125ZM14.7344 12.2188L8.26562 12.2188C7.87031 12.2188 7.54688 12.5422 7.54688 12.9375C7.54688 13.3328 7.87031 13.6562 8.26562 13.6562L14.7344 13.6562C15.1297 13.6562 15.4531 13.3328 15.4531 12.9375C15.4531 12.5422 15.1297 12.2188 14.7344 12.2188ZM14.7344 8.625L8.26562 8.625C7.87031 8.625 7.54688 8.94844 7.54688 9.34375C7.54688 9.73906 7.87031 10.0625 8.26562 10.0625L14.7344 10.0625C15.1297 10.0625 15.4531 9.73906 15.4531 9.34375C15.4531 8.94844 15.1297 8.625 14.7344 8.625Z" fill="currentColor" fill-rule="nonzero" />
	<path id="矢量 66" d="M16.1719 3.23438L15.6687 3.23438C15.3813 2.40781 14.5906 1.79688 13.6562 1.79688L9.34375 1.79688C8.40937 1.79688 7.61875 2.40781 7.33125 3.23438L6.82812 3.23438C4.85156 3.23438 3.23438 4.85156 3.23438 6.82812L3.23438 17.6094C3.23438 19.5859 4.85156 21.2031 6.82812 21.2031L16.1719 21.2031C18.1484 21.2031 19.7656 19.5859 19.7656 17.6094L19.7656 6.82812C19.7656 4.85156 18.1484 3.23438 16.1719 3.23438ZM9.34375 3.23438L13.6562 3.23438C14.0516 3.23438 14.375 3.55781 14.375 3.95312C14.375 4.34844 14.0516 4.67188 13.6562 4.67188L9.34375 4.67188C8.94844 4.67188 8.625 4.34844 8.625 3.95312C8.625 3.55781 8.94844 3.23438 9.34375 3.23438ZM18.3281 17.6094C18.3281 18.7953 17.3578 19.7656 16.1719 19.7656L6.82812 19.7656C5.64219 19.7656 4.67188 18.7953 4.67188 17.6094L4.67188 6.82812C4.67188 5.64219 5.64219 4.67188 6.82812 4.67188L7.33125 4.67188C7.61875 5.49844 8.40937 6.10938 9.34375 6.10938L13.6562 6.10938C14.5906 6.10938 15.3813 5.49844 15.6687 4.67188L16.1719 4.67188C17.3578 4.67188 18.3281 5.64219 18.3281 6.82812L18.3281 17.6094Z" fill="currentColor" fill-rule="nonzero" />
</svg>
