<svg viewBox="0 0 22 22"
	xmlns="http://www.w3.org/2000/svg"
	xmlns:xlink="http://www.w3.org/1999/xlink" width="22.000000" height="22.000000" fill="none" customframe="#000000">
	<path id="Vector" d="M4.72952 0L3.54714 3.54714L0 4.72952L0 6.78414L3.54714 7.96652L4.72952 11.5137L6.78414 11.5137L7.96652 7.96652L11.5137 6.78414L11.5137 4.72952L7.96652 3.54714L6.78414 0L4.72952 0ZM5.43054 4.74567L5.75683 3.7668L6.08312 4.74567L6.76799 5.43054L7.74686 5.75683L6.76799 6.08312L6.08312 6.76799L5.75683 7.74686L5.43054 6.76799L4.74567 6.08312L3.7668 5.75683L4.74567 5.43054L5.43054 4.74567ZM4.67395 13.337C4.67395 14.1928 4.95319 14.9835 5.42554 15.6227C5.54838 15.789 5.68427 15.945 5.83171 16.0892C5.69545 16.2079 5.56881 16.3373 5.45313 16.4762C4.96661 17.0602 4.67395 17.8115 4.67395 18.631C4.67395 20.4917 6.18228 22 8.0429 22C8.86249 22 9.61372 21.7073 10.1978 21.2208C10.3367 21.1051 10.4661 20.9785 10.5847 20.8422C10.729 20.9897 10.885 21.1256 11.0512 21.2484C11.6905 21.7208 12.4811 22 13.337 22C14.1928 22 14.9834 21.7208 15.6227 21.2484C15.789 21.1256 15.945 20.9897 16.0892 20.8422C16.2079 20.9785 16.3373 21.1051 16.4762 21.2208C17.0602 21.7073 17.8115 22 18.631 22C20.4917 22 22 20.4917 22 18.631C22 17.8115 21.7073 17.0602 21.2208 16.4762C21.1051 16.3373 20.9785 16.2079 20.8422 16.0892C20.9897 15.945 21.1256 15.789 21.2484 15.6227C21.7208 14.9835 22 14.1928 22 13.337C22 12.4811 21.7208 11.6905 21.2484 11.0512C21.1256 10.885 20.9897 10.729 20.8422 10.5847C20.9785 10.4661 21.1051 10.3367 21.2208 10.1978C21.7073 9.61371 22 8.86249 22 8.0429C22 6.18228 20.4917 4.67395 18.631 4.67395C17.8115 4.67395 17.0602 4.96661 16.4762 5.45313C16.3373 5.56881 16.2079 5.69545 16.0892 5.83171C15.945 5.68427 15.789 5.54838 15.6227 5.42554C14.9835 4.95319 14.1928 4.67395 13.337 4.67395L13.337 6.83971C13.8092 6.83971 14.2329 7.0312 14.5412 7.34633C14.9639 7.77838 15.548 8.01412 16.1522 7.99656C16.7564 7.97899 17.3257 7.70973 17.7226 7.25386C17.9465 6.99679 18.2691 6.83971 18.631 6.83971C19.2956 6.83971 19.8342 7.3784 19.8342 8.0429C19.8342 8.40481 19.6772 8.7275 19.4201 8.95132C18.9642 9.34823 18.695 9.9176 18.6774 10.5218C18.6598 11.126 18.8956 11.71 19.3276 12.1328C19.6428 12.4411 19.8342 12.8647 19.8342 13.337C19.8342 13.8092 19.6428 14.2329 19.3276 14.5412C18.8956 14.9639 18.6598 15.548 18.6774 16.1522C18.695 16.7564 18.9642 17.3257 19.4201 17.7226C19.6772 17.9465 19.8342 18.2691 19.8342 18.631C19.8342 19.2956 19.2956 19.8342 18.631 19.8342C18.2691 19.8342 17.9465 19.6772 17.7226 19.4201C17.3257 18.9642 16.7563 18.695 16.1522 18.6774C15.548 18.6598 14.9639 18.8956 14.5412 19.3276C14.2328 19.6428 13.8092 19.8342 13.337 19.8342C12.8647 19.8342 12.4411 19.6428 12.1328 19.3276C11.71 18.8956 11.126 18.6598 10.5218 18.6774C9.9176 18.695 9.34823 18.9642 8.95132 19.4201C8.7275 19.6772 8.40481 19.8342 8.0429 19.8342C7.3784 19.8342 6.83971 19.2956 6.83971 18.631C6.83971 18.2691 6.99679 17.9465 7.25386 17.7226C7.70973 17.3257 7.97899 16.7564 7.99656 16.1522C8.01412 15.548 7.77838 14.9639 7.34633 14.5412C7.0312 14.2329 6.83971 13.8092 6.83971 13.337L4.67395 13.337Z" fill="currentColor" fill-rule="evenodd" />
</svg>
