<svg viewBox="0 0 27 27" xmlns="http://www.w3.org/2000/svg" xmlns:xlink="http://www.w3.org/1999/xlink" width="27.000000" height="27.000000" fill="none">
	<path id="矢量 59" d="M13.311 16.713C11.922 16.7352 10.5577 16.3436 9.39195 15.5881C8.22616 14.8326 7.31155 13.7472 6.76452 12.4703C6.21749 11.1933 6.06279 9.78246 6.32011 8.41729C6.57742 7.05213 7.23512 5.7944 8.20948 4.8042C9.18384 3.814 10.4308 3.1361 11.7916 2.8568C13.1525 2.5775 14.5656 2.70943 15.8513 3.2358C17.1369 3.76216 18.2368 4.65915 19.011 5.8126C19.7853 6.96604 20.1988 8.32378 20.199 9.71298C20.2064 10.9312 19.8938 12.1301 19.2925 13.1896C18.6912 14.2491 17.8222 15.1322 16.7725 15.7506C15.7228 16.3689 14.5292 16.7007 13.311 16.713ZM13.311 3.50397C12.0793 3.47964 10.8682 3.82269 9.83223 4.48936C8.79625 5.15604 7.98229 6.11615 7.49414 7.24727C7.00599 8.37838 6.86576 9.62925 7.09133 10.8404C7.31691 12.0515 7.89807 13.168 8.76071 14.0475C9.62335 14.9271 10.7284 15.5297 11.9349 15.7788C13.1414 16.0278 14.3948 15.9118 15.5351 15.4457C16.6755 14.9795 17.6512 14.1843 18.3378 13.1615C19.0245 12.1386 19.3909 10.9344 19.3905 9.70248C19.3997 8.62496 19.1257 7.56392 18.5959 6.62565C18.066 5.68737 17.2989 4.9048 16.3713 4.35632C15.4438 3.80784 14.3885 3.5127 13.311 3.50047L13.311 3.50397Z" fill="rgb(255,255,255)" fill-rule="nonzero" />
	<path id="矢量 60" d="M13.311 16.888C11.8849 16.9123 10.4838 16.5117 9.28612 15.7371C8.08847 14.9624 7.14845 13.8489 6.58576 12.5382C6.02308 11.2276 5.86319 9.77913 6.12645 8.37731C6.38972 6.97548 7.06423 5.68372 8.06409 4.66652C9.06395 3.64932 10.3439 2.9527 11.741 2.66537C13.1381 2.37805 14.5891 2.51301 15.9092 3.05308C17.2294 3.59315 18.3589 4.51388 19.154 5.69804C19.9491 6.8822 20.3738 8.2762 20.374 9.70253C20.3833 10.9527 20.0638 12.1833 19.4476 13.2711C18.8314 14.3589 17.9401 15.2656 16.8631 15.9004C15.7861 16.5352 14.5611 16.8758 13.311 16.888ZM13.311 2.88803C11.9532 2.86369 10.619 3.24435 9.4784 3.98143C8.33785 4.71851 7.44269 5.77862 6.9071 7.02654C6.37151 8.27446 6.21977 9.65363 6.47123 10.9881C6.72269 12.3227 7.36595 13.552 8.31897 14.5195C9.27199 15.4869 10.4916 16.1485 11.8222 16.42C13.1527 16.6914 14.534 16.5604 15.7899 16.0436C17.0457 15.5268 18.1191 14.6476 18.8732 13.5183C19.6273 12.3889 20.028 11.0605 20.024 9.70253C20.0326 8.5142 19.7289 7.34447 19.1433 6.31044C18.5577 5.27641 17.7107 4.41438 16.6871 3.81067C15.6635 3.20696 14.4993 2.88276 13.311 2.87053L13.311 2.88803ZM13.311 16.097C12.0456 16.1213 10.8015 15.7685 9.73722 15.0835C8.67293 14.3985 7.83655 13.4123 7.33456 12.2505C6.83256 11.0886 6.68766 9.80364 6.91829 8.55916C7.14893 7.31468 7.74467 6.16698 8.62968 5.26216C9.51469 4.35734 10.6489 3.73635 11.888 3.47823C13.1271 3.2201 14.4149 3.33653 15.5876 3.81269C16.7603 4.28885 17.7648 5.1032 18.4732 6.15206C19.1815 7.20093 19.5618 8.43687 19.5655 9.70254C19.5748 10.8108 19.2927 11.902 18.7474 12.8669C18.2022 13.8317 17.413 14.6364 16.4589 15.2002C15.5047 15.7641 14.4192 16.0673 13.311 16.0795L13.311 16.097ZM13.311 3.69303C12.1133 3.66868 10.9355 4.0018 9.92802 4.64986C8.92052 5.29793 8.12899 6.23152 7.65448 7.33148C7.17998 8.43143 7.04403 9.64784 7.26398 10.8254C7.48394 12.003 8.04982 13.0883 8.88939 13.9428C9.72896 14.7973 10.8041 15.3822 11.9776 15.6229C13.1512 15.8636 14.3698 15.7491 15.4779 15.294C16.5861 14.839 17.5335 14.064 18.1992 13.0681C18.8649 12.0722 19.2187 10.9005 19.2155 9.70253C19.2248 8.65573 18.9588 7.62487 18.4443 6.7132C17.9298 5.80152 17.1848 5.04104 16.2839 4.50792C15.3829 3.9748 14.3578 3.68775 13.311 3.67553L13.311 3.69303Z" fill="rgb(255,255,255)" fill-rule="nonzero" />
	<path id="矢量 61" d="M22.3795 23.7829C22.3221 23.7828 22.2654 23.7705 22.2132 23.7467C22.161 23.7229 22.1145 23.6882 22.0767 23.6449C22.039 23.6017 22.011 23.5509 21.9945 23.4959C21.5572 21.9974 20.7397 20.6375 19.6213 19.5485C18.5029 18.4594 17.1218 17.6782 15.6122 17.2809C14.1026 16.8836 12.5159 16.8836 11.0063 17.2809C9.49673 17.6782 8.11562 18.4594 6.99725 19.5485C5.87889 20.6375 5.06132 21.9974 4.62403 23.4959C4.60424 23.5644 4.56661 23.6264 4.51498 23.6756C4.46335 23.7248 4.39958 23.7594 4.33019 23.7758C4.26081 23.7923 4.18829 23.79 4.12008 23.7692C4.05186 23.7485 3.99039 23.7099 3.94195 23.6576C3.89351 23.6053 3.85984 23.541 3.8444 23.4714C3.82895 23.4018 3.83227 23.3293 3.85403 23.2614C4.33552 21.6362 5.22802 20.1626 6.44531 18.983C7.66259 17.8035 9.16352 16.9578 10.8031 16.5277C12.4426 16.0975 14.1654 16.0975 15.805 16.5277C17.4445 16.9578 18.9455 17.8035 20.1628 18.983C21.38 20.1626 22.2725 21.6362 22.754 23.2614C22.779 23.342 22.778 23.4285 22.7511 23.5085C22.7242 23.5885 22.6729 23.6581 22.6043 23.7073C22.5358 23.7566 22.4534 23.783 22.369 23.7829L22.3795 23.7829Z" fill="rgb(255,255,255)" fill-rule="nonzero" />
	<path id="矢量 62" d="M4.23901 23.9579C4.11985 23.9551 4.00447 23.9155 3.9087 23.8446C3.81293 23.7736 3.74146 23.6748 3.70409 23.5616C3.66673 23.4484 3.66531 23.3264 3.70001 23.2124C4.18682 21.5538 5.09399 20.0491 6.33354 18.8443C7.57308 17.6395 9.10293 16.7754 10.7747 16.336C12.4465 15.8965 14.2035 15.8965 15.8753 16.336C17.5471 16.7754 19.0769 17.6395 20.3165 18.8443C21.556 20.0491 22.4632 21.5538 22.95 23.2124C22.9796 23.3095 22.9831 23.4126 22.9601 23.5115C22.9371 23.6103 22.8885 23.7013 22.8191 23.7754C22.7498 23.8495 22.6621 23.904 22.565 23.9334C22.4679 23.9611 22.3653 23.9633 22.2671 23.9399C22.1689 23.9165 22.0784 23.8681 22.0043 23.7996C21.9302 23.731 21.875 23.6445 21.844 23.5484C21.4152 22.0789 20.6134 20.7453 19.5167 19.6773C18.42 18.6093 17.0656 17.8433 15.5852 17.4536C14.1048 17.064 12.5487 17.064 11.0684 17.4536C9.58796 17.8433 8.23356 18.6093 7.13683 19.6773C6.0401 20.7453 5.23835 22.0789 4.80951 23.5484C4.78471 23.6288 4.74276 23.7028 4.68654 23.7654C4.63033 23.828 4.5612 23.8776 4.48393 23.9108C4.40666 23.9441 4.3231 23.9601 4.23901 23.9579L4.23901 23.9579ZM13.311 16.3594C11.9245 16.3606 10.5543 16.6589 9.29277 17.2344C8.03127 17.8098 6.90776 18.6489 5.99795 19.6952C5.08814 20.7415 4.41317 21.9707 4.01851 23.2999C4.00682 23.3383 4.00545 23.3791 4.01453 23.4182C4.02362 23.4573 4.04284 23.4933 4.07026 23.5226C4.09768 23.552 4.13233 23.5735 4.17074 23.5852C4.20915 23.5969 4.24995 23.5983 4.28905 23.5892C4.32815 23.5801 4.36416 23.5608 4.39347 23.5334C4.42278 23.506 4.44435 23.4713 4.45601 23.4329C4.90176 21.9054 5.73514 20.5192 6.87513 19.4091C8.01513 18.299 9.42296 17.5027 10.9618 17.0977C12.5006 16.6926 14.118 16.6926 15.6568 17.0977C17.1956 17.5027 18.6034 18.299 19.7434 19.4091C20.8834 20.5192 21.7168 21.9054 22.1625 23.4329C22.1757 23.4699 22.1979 23.5031 22.2271 23.5295C22.2563 23.5559 22.2916 23.5746 22.3298 23.584C22.368 23.5934 22.4079 23.5932 22.446 23.5834C22.4845 23.5721 22.5193 23.5509 22.5469 23.5219C22.5745 23.4928 22.594 23.457 22.6033 23.418C22.6126 23.379 22.6115 23.3383 22.6 23.2999C22.2055 21.9711 21.5308 20.7422 20.6213 19.6961C19.7119 18.65 18.5889 17.8109 17.3279 17.2353C16.0669 16.6597 14.6972 16.3611 13.311 16.3594Z" fill="rgb(255,255,255)" fill-rule="nonzero" />
</svg>
