<svg viewBox="0 0 79 79" xmlns="http://www.w3.org/2000/svg" xmlns:xlink="http://www.w3.org/1999/xlink" width="79.000000" height="79.000000" fill="none">
	<defs>
		<linearGradient id="paint_linear_10" x1="3.99999809" x2="36.2083588" y1="7.99999237" y2="71.3195496" gradientUnits="userSpaceOnUse">
			<stop stop-color="rgb(74,46,245)" offset="0" stop-opacity="1" />
			<stop stop-color="rgb(176,62,250)" offset="0.797043443" stop-opacity="0.889442325" />
			<stop stop-color="rgb(51,117,255)" offset="1" stop-opacity="0.779999971" />
		</linearGradient>
	</defs>
	<rect id="低成本 1" width="79.000000" height="79.000000" x="0.000000" y="0.000000" />
	<path id="矢量 69" d="M59.3499 29.5C57.9037 27.6819 55.9748 26.3181 54.047 24.9542C53.5642 24.9542 53.5642 24.5 53.0814 24.5C55.4931 23.1361 57.421 20.8627 57.421 18.1361C57.421 14.0446 53.0825 10.8626 47.7797 10.8626C46.8141 10.8626 45.3691 10.8626 44.4046 11.3169C43.9218 11.3169 43.4391 11.7722 43.4391 11.7722L42.4757 11.7722C42.4757 11.3169 41.9929 10.4084 41.0296 9.95301C39.5834 8.59136 37.6545 7.68066 36.2084 7.68066C34.2794 7.68066 32.8333 8.59026 31.3872 9.95301C30.4227 10.4084 29.4583 10.8626 28.9766 11.7722L28.4938 11.7722C28.4938 11.7722 28.0121 11.3169 27.5304 11.3169C26.566 10.8626 25.6015 10.4084 24.1554 10.4084C19.3342 10.4084 14.513 13.5903 14.513 17.6807C14.513 20.4084 16.4419 22.6819 18.8525 24.0446C18.8525 24.0446 18.3697 24.5 17.888 24.5C16.4419 25.8627 14.513 27.2266 13.0668 29.0447C7.76397 34.0469 4.38892 39.5001 4.38892 45.864C4.38892 63.1376 18.3697 71.3195 35.7256 71.3195L36.6911 71.3195C53.5642 71.3195 68.0278 63.1376 68.0278 45.864C67.545 39.9544 64.6527 34.0458 59.3499 29.5L59.3499 29.5ZM45.3691 47.2278C46.3324 47.2278 47.2969 48.1374 47.2969 49.0459C47.2969 49.9555 46.3324 50.864 45.3691 50.864L37.6556 50.864L37.6556 57.6833C37.6556 58.5918 36.69 59.5014 35.7267 59.5014C34.7611 59.5014 34.2794 58.5918 34.2794 57.6833L34.2794 50.864L26.566 50.864C25.6015 50.864 24.6381 49.9555 24.6381 49.0459C24.6381 48.1374 25.6015 47.2278 26.566 47.2278L34.2794 47.2278L34.2794 43.1363L26.566 43.1363C25.6015 43.1363 24.6381 42.2278 24.6381 41.3182C24.6381 40.4097 25.6015 39.5001 26.566 39.5001L32.3516 39.5001L26.0843 33.5905C25.1198 32.682 25.1198 31.7724 26.0843 31.3181C26.5671 30.4085 28.0121 30.4085 28.4949 31.3181L36.2084 38.1363L43.9218 30.8639C44.4046 30.4085 45.3691 30.4085 46.3324 31.3181C47.298 32.2277 47.298 33.1362 46.3324 33.5905L40.0651 39.5001L45.8507 39.5001C46.8152 39.5001 47.7797 40.4097 47.7797 41.3182C47.7797 42.2278 46.8141 43.1363 45.3691 43.1363L37.6556 43.1363L37.6556 47.2278L45.3691 47.2278L45.3691 47.2278Z" fill="url(#paint_linear_10)" fill-rule="nonzero" />
	<path id="矢量 70" d="M61.4445 77.3543C71.1406 77.3543 79 69.4949 79 59.7987C79 50.1026 71.1406 42.2432 61.4445 42.2432C51.7483 42.2432 43.8889 50.1026 43.8889 59.7987C43.8889 69.4949 51.7483 77.3543 61.4445 77.3543Z" fill="rgb(173,201,255)" fill-rule="nonzero" />
	<path id="矢量 71" d="M63.9133 62.8907L63.9133 53.2593C63.9133 52.7379 63.7483 52.23 63.4418 51.8082C63.1354 51.3864 62.7033 51.0725 62.2075 50.9114C61.7116 50.7502 61.1775 50.7502 60.6817 50.9114C60.1858 51.0725 59.7537 51.3864 59.4473 51.8082C59.1409 52.23 58.9758 52.7379 58.9758 53.2593L58.9758 62.8907L57.3717 61.2855C57.003 60.9168 56.5271 60.6743 56.0122 60.5928C55.4973 60.5112 54.9697 60.5948 54.5052 60.8314C54.0407 61.0681 53.663 61.4458 53.4263 61.9103C53.1896 62.3749 53.1061 62.9024 53.1876 63.4173C53.2692 63.9323 53.5117 64.4082 53.8803 64.7768L59.6989 70.5965C60.0061 70.9037 60.3889 71.1243 60.8086 71.2363C61.2284 71.3482 61.6702 71.3473 62.0895 71.2338C62.5089 71.1204 62.8908 70.8982 63.1968 70.5899L69.0088 64.7768C69.367 64.4061 69.6002 63.9325 69.6756 63.4226C69.751 62.9126 69.6649 62.3919 69.4293 61.9333C69.1938 61.4748 68.8206 61.1015 68.3621 60.8658C67.9037 60.6301 67.3829 60.5439 66.873 60.6191C66.363 60.6944 65.8894 60.9274 65.5186 61.2855L63.9133 62.8907L63.9133 62.8907Z" fill="rgb(255,255,255)" fill-rule="nonzero" />
</svg>
