<svg viewBox="0 0 79 69" xmlns="http://www.w3.org/2000/svg" xmlns:xlink="http://www.w3.org/1999/xlink" width="79.000000" height="69.000000" fill="none">
	<defs>
		<linearGradient id="paint_linear_11" x1="39.5072403" x2="39.5072403" y1="0" y2="68.9880753" gradientUnits="userSpaceOnUse">
			<stop stop-color="rgb(134,86,252)" offset="0" stop-opacity="1" />
			<stop stop-color="rgb(232,99,249)" offset="0.505904198" stop-opacity="0.505904198" />
			<stop stop-color="rgb(160,125,255)" offset="1" stop-opacity="1" />
		</linearGradient>
	</defs>
	<rect id="高品质生动直观 1" width="79.000000" height="69.000000" x="0.000000" y="0.000000" />
	<path id="矢量 68" d="M78.7206 20.6258C78.7451 20.6271 78.7695 20.622 78.7913 20.6108C78.8131 20.5997 78.8316 20.583 78.8449 20.5625C78.8582 20.5419 78.8658 20.5182 78.867 20.4937C78.8682 20.4693 78.8629 20.4449 78.8517 20.4232C78.8199 20.3596 78.7842 20.3 78.7485 20.2404L67.9485 2.93981C67.934 2.91768 67.9143 2.8995 67.8911 2.88691C67.8679 2.87433 67.8419 2.86774 67.8155 2.86774C67.789 2.86774 67.7631 2.87433 67.7398 2.88691C67.7166 2.8995 67.6969 2.91768 67.6824 2.93981L59.3442 20.4192C59.3347 20.441 59.3309 20.4648 59.3332 20.4885C59.3355 20.5121 59.3438 20.5348 59.3573 20.5543C59.3709 20.5738 59.3892 20.5895 59.4105 20.6C59.4319 20.6104 59.4555 20.6152 59.4792 20.6139L78.7206 20.6258ZM25.0742 20.6258L53.7457 20.6258C53.7719 20.6275 53.798 20.6218 53.821 20.6094C53.8441 20.5969 53.8632 20.5782 53.876 20.5553C53.8889 20.5325 53.8951 20.5064 53.8938 20.4803C53.8925 20.4541 53.8838 20.4288 53.8688 20.4073L39.5311 1.04091C39.5117 1.01655 39.4854 0.99861 39.4556 0.989425C39.4259 0.98024 39.394 0.98024 39.3643 0.989425C39.3345 0.99861 39.3083 1.01655 39.2889 1.04091L24.9511 20.4073C24.9361 20.4288 24.9274 20.4541 24.9261 20.4803C24.9248 20.5064 24.931 20.5325 24.9439 20.5553C24.9567 20.5782 24.9758 20.5969 24.9989 20.6094C25.0219 20.6218 25.048 20.6275 25.0742 20.6258ZM36.2434 0.218587C36.2578 0.197938 36.2663 0.173772 36.268 0.148665C36.2698 0.123559 36.2647 0.0984532 36.2532 0.076026C36.2418 0.0535988 36.2246 0.0346909 36.2032 0.0213186C36.1819 0.00794632 36.1574 0.000611054 36.1322 9.50356e-05L15.7672 9.50356e-05C14.954 0.0192297 14.1595 0.247719 13.4603 0.663517C13.4411 0.675062 13.425 0.691056 13.4134 0.710144C13.4017 0.729231 13.3949 0.750847 13.3933 0.77316C13.3918 0.795472 13.3957 0.817821 13.4047 0.838311L22.0804 18.9811C22.0938 19.0033 22.1128 19.0217 22.1354 19.0344C22.158 19.0472 22.1835 19.0539 22.2094 19.0539C22.2354 19.0539 22.2609 19.0472 22.2835 19.0344C22.3061 19.0217 22.325 19.0033 22.3385 18.9811L36.2434 0.218587ZM65.5185 0.615846C65.529 0.594348 65.5335 0.570376 65.5313 0.546533C65.5292 0.522689 65.5206 0.499882 65.5064 0.480588C65.4923 0.461293 65.4731 0.446246 65.451 0.43708C64.8657 0.160077 64.2282 0.011104 63.5808 9.50847e-05L42.6956 9.50847e-05C42.6698 -0.000860705 42.6442 0.00540475 42.6218 0.0181878C42.5993 0.0309709 42.5808 0.0497654 42.5685 0.0724605C42.5561 0.0951555 42.5503 0.120852 42.5517 0.146665C42.5531 0.172478 42.5617 0.197385 42.5765 0.218587L56.4735 19.001C56.487 19.0232 56.5059 19.0415 56.5285 19.0543C56.5511 19.067 56.5766 19.0737 56.6026 19.0737C56.6285 19.0737 56.654 19.067 56.6766 19.0543C56.6992 19.0415 56.7182 19.0232 56.7316 19.001L65.5185 0.615846ZM24.161 23.4741C24.1388 23.4732 24.1168 23.4776 24.0967 23.4869C24.0766 23.4962 24.059 23.5102 24.0454 23.5277C24.0318 23.5452 24.0226 23.5657 24.0185 23.5874C24.0145 23.6092 24.0156 23.6317 24.022 23.6529L39.3683 68.9881L39.4794 68.9881L54.794 23.6529C54.8003 23.6317 54.8015 23.6092 54.7974 23.5874C54.7933 23.5657 54.7841 23.5452 54.7705 23.5277C54.7569 23.5102 54.7393 23.4962 54.7192 23.4869C54.6991 23.4776 54.6771 23.4732 54.655 23.4741L24.161 23.4741ZM11.3638 3.42844C11.3506 3.40532 11.3315 3.3861 11.3085 3.37274C11.2855 3.35937 11.2594 3.35233 11.2328 3.35233C11.2062 3.35233 11.18 3.35937 11.157 3.37274C11.134 3.3861 11.1149 3.40532 11.1017 3.42844L0.595587 20.2365C0.559851 20.3 0.520146 20.3556 0.48441 20.4152C0.47252 20.4374 0.466686 20.4623 0.467495 20.4875C0.468304 20.5126 0.475729 20.5371 0.48902 20.5584C0.502311 20.5798 0.520997 20.5973 0.543193 20.6091C0.56539 20.6209 0.59031 20.6267 0.615439 20.6258L19.3605 20.6258C19.3844 20.6263 19.408 20.6209 19.4293 20.61C19.4505 20.599 19.4686 20.583 19.4821 20.5632C19.4955 20.5435 19.5037 20.5207 19.5061 20.4969C19.5085 20.4731 19.5048 20.4492 19.4955 20.4271L11.3638 3.42844ZM0 23.4741L0.0436764 23.5456C0.0569963 23.5671 0.0757734 23.5847 0.0980938 23.5966C0.120414 23.6084 0.145479 23.6141 0.170735 23.6132C0.192516 23.6129 0.214087 23.6174 0.233963 23.6264C0.25384 23.6353 0.271552 23.6484 0.285882 23.6648C0.460587 23.8714 0.682939 24.1375 0.96088 24.4593L34.274 64.0899C34.2879 64.1184 34.3104 64.1418 34.3383 64.1567C34.3663 64.1717 34.3982 64.1773 34.4296 64.173C34.461 64.1686 34.4902 64.1545 34.513 64.1325C34.5359 64.1105 34.5512 64.0819 34.5567 64.0507C34.5623 64.0195 34.5578 63.9873 34.544 63.9588L20.8574 23.5695C20.8468 23.5402 20.8273 23.5149 20.8017 23.4971C20.7761 23.4793 20.7457 23.4699 20.7145 23.4702L0 23.4702L0 23.4741ZM79.0145 23.4741L58.1054 23.4741C58.0853 23.4735 58.0653 23.4772 58.0468 23.4849C58.0282 23.4925 58.0114 23.504 57.9976 23.5186C57.9838 23.5332 57.9731 23.5505 57.9665 23.5695L43.9424 65.0671C43.8908 65.2141 44.0972 65.3134 44.2005 65.1943L78.4387 24.4633C78.6832 24.1671 78.8777 23.833 79.0145 23.4741Z" fill="url(#paint_linear_11)" fill-rule="nonzero" />
</svg>
