<svg viewBox="0 0 90 90" xmlns="http://www.w3.org/2000/svg" xmlns:xlink="http://www.w3.org/1999/xlink" width="90.000000" height="90.000000" fill="none">
	<defs>
		<linearGradient id="paint_linear_13" x1="22.9999962" x2="92.9999847" y1="29.5000057" y2="99.5000076" gradientUnits="userSpaceOnUse">
			<stop stop-color="rgb(134,86,252)" offset="0" stop-opacity="1" />
			<stop stop-color="rgb(191,148,253)" offset="0.407466471" stop-opacity="1" />
			<stop stop-color="rgb(115,167,246)" offset="1" stop-opacity="1" />
		</linearGradient>
	</defs>
	<rect id="模版 (1) 1" width="90.000000" height="90.000000" x="0.000000" y="0.000000" />
	<path id="矢量 2" d="M33.6413 90.4725L78.5738 90.4725C80.1769 90.4725 81.4725 89.1788 81.4725 87.5738L81.4725 38.655L33.6413 38.655L33.6413 90.4725L33.6413 90.4725ZM78.5738 18L33.6413 18L33.6413 32.8556L81.4725 32.8556L81.4725 20.8988C81.4725 19.2956 80.1788 18 78.5738 18L78.5738 18ZM9 20.8988L9 87.5738C9 89.1769 10.2938 90.4725 11.8988 90.4725L27.8419 90.4725L27.8419 18L11.8988 18C10.2956 18 9 19.2938 9 20.8988L9 20.8988Z" fill="url(#paint_linear_13)" fill-rule="nonzero" />
</svg>
