<?xml version="1.0" standalone="no"?><!DOCTYPE svg PUBLIC "-//W3C//DTD SVG 1.1//EN" "http://www.w3.org/Graphics/SVG/1.1/DTD/svg11.dtd">
<svg t="1763999388951" class="icon" viewBox="0 0 1024 1024" version="1.1"
    xmlns="http://www.w3.org/2000/svg" p-id="3250"
    xmlns:xlink="http://www.w3.org/1999/xlink" width="200" height="200">
    <path d="M627.2 610.133333c0-12.8 8.533333-21.333333 21.333333-21.333333 59.733333 0 110.933333-51.2 110.933334-110.933333 0-12.8 8.533333-21.333333 21.333333-21.333334s21.333333 8.533333 21.333333 21.333334c0 59.733333 51.2 110.933333 110.933334 110.933333 12.8 0 21.333333 8.533333 21.333333 21.333333s-8.533333 21.333333-21.333333 21.333334c-59.733333 0-110.933333 51.2-110.933334 110.933333 0 12.8-8.533333 21.333333-21.333333 21.333333s-21.333333-8.533333-21.333333-21.333333c0-59.733333-51.2-110.933333-110.933334-110.933333-12.8 0-21.333333-8.533333-21.333333-21.333334z m153.6-51.2c-12.8 21.333333-29.866667 38.4-55.466667 55.466667 21.333333 12.8 38.4 29.866667 55.466667 55.466667 12.8-21.333333 29.866667-38.4 55.466667-55.466667-21.333333-17.066667-42.666667-34.133333-55.466667-55.466667z m0 0M490.666667 162.133333c0-12.8 8.533333-21.333333 21.333333-21.333333s21.333333-8.533333 21.333333-21.333333 8.533333-21.333333 21.333334-21.333334 21.333333 8.533333 21.333333 21.333334 8.533333 21.333333 21.333333 21.333333 21.333333 8.533333 21.333334 21.333333-8.533333 21.333333-21.333334 21.333334-21.333333 8.533333-21.333333 21.333333-8.533333 21.333333-21.333333 21.333333-21.333333-8.533333-21.333334-21.333333-8.533333-21.333333-21.333333-21.333333c-8.533333 4.266667-21.333333-8.533333-21.333333-21.333334z m0 0M704 332.8l-25.6-25.6c-29.866667-29.866667-76.8-29.866667-106.666667 0L98.133333 780.8c-12.8 12.8-21.333333 34.133333-21.333333 55.466667s8.533333 38.4 21.333333 55.466666l25.6 25.6c12.8 12.8 34.133333 21.333333 55.466667 21.333334s38.4-8.533333 55.466667-21.333334l473.6-473.6c12.8-17.066667 17.066667-38.4 17.066666-55.466666 0-21.333333-4.266667-38.4-21.333333-55.466667z m-145.066667 166.4l-371.2 371.2c-4.266667 4.266667-4.266667 4.266667-8.533333 4.266667s-8.533333 0-8.533333-4.266667l-25.6-25.6c-4.266667-4.266667-4.266667-4.266667-4.266667-8.533333s0-8.533333 4.266667-8.533334l371.2-371.2 42.666666 42.666667z m106.666667-110.933333c0 4.266667 0 8.533333-4.266667 8.533333l-59.733333 59.733333L554.666667 409.6l59.733333-59.733333c4.266667-4.266667 12.8-4.266667 21.333333 0l12.8 12.8 12.8 12.8c4.266667 4.266667 4.266667 8.533333 4.266667 12.8zM716.8 251.733333c0-12.8 8.533333-21.333333 21.333333-21.333333 38.4 0 68.266667-29.866667 68.266667-68.266667 0-12.8 8.533333-21.333333 21.333333-21.333333s21.333333 8.533333 21.333334 21.333333c0 38.4 29.866667 68.266667 68.266666 68.266667 12.8 0 21.333333 8.533333 21.333334 21.333333s-8.533333 21.333333-21.333334 21.333334c-38.4 0-68.266667 29.866667-68.266666 68.266666 0 12.8-8.533333 21.333333-21.333334 21.333334s-21.333333-8.533333-21.333333-21.333334c0-38.4-29.866667-68.266667-68.266667-68.266666-12.8 4.266667-21.333333-8.533333-21.333333-21.333334z m110.933333-21.333333c-4.266667 8.533333-12.8 17.066667-21.333333 21.333333 8.533333 4.266667 17.066667 12.8 21.333333 21.333334 4.266667-8.533333 12.8-17.066667 21.333334-21.333334-8.533333-4.266667-17.066667-12.8-21.333334-21.333333z m0 0M268.8 251.733333c0-12.8 8.533333-21.333333 21.333333-21.333333 38.4 0 68.266667-29.866667 68.266667-68.266667 0-12.8 8.533333-21.333333 21.333333-21.333333s21.333333 8.533333 21.333334 21.333333c0 38.4 29.866667 68.266667 68.266666 68.266667 12.8 0 21.333333 8.533333 21.333334 21.333333s-8.533333 21.333333-21.333334 21.333334c-38.4 0-68.266667 29.866667-68.266666 68.266666 0 12.8-8.533333 21.333333-21.333334 21.333334s-21.333333-8.533333-21.333333-21.333334c0-38.4-29.866667-68.266667-68.266667-68.266666-12.8 4.266667-21.333333-8.533333-21.333333-21.333334z m110.933333-21.333333c-4.266667 8.533333-12.8 17.066667-21.333333 21.333333 8.533333 4.266667 17.066667 12.8 21.333333 21.333334 4.266667-8.533333 12.8-17.066667 21.333334-21.333334-8.533333-4.266667-12.8-12.8-21.333334-21.333333z m0 0" fill="currentColor" fill-rule="nonzero"   p-id="3251"></path>
</svg>