<svg viewBox="0 0 20 20" xmlns="http://www.w3.org/2000/svg" xmlns:xlink="http://www.w3.org/1999/xlink" width="20.000000" height="20.000000" fill="none">
	<defs>
		<clipPath id="clipPath_0">
			<rect width="16.000000" height="16.000000" x="2.000000" y="2.000000" fill="rgb(255,255,255)" />
		</clipPath>
	</defs>
	<g id="保存 (1) 1" clip-path="url(#clipPath_0)" customframe="url(#clipPath_0)">
		<rect id="保存 (1) 1" width="16.000000" height="16.000000" x="2.000000" y="2.000000" />
		<path id="矢量 40" d="M3.99996 4.00008L3.99996 16.0001L16.0013 16.0001L16 7.60942L12.3906 4.00008L3.99996 4.00008ZM16 17.3334L3.99996 17.3334C3.26463 17.3334 2.66663 16.7354 2.66663 16.0001L2.66663 4.00008C2.66663 3.26475 3.26463 2.66675 3.99996 2.66675L12.9433 2.66675L17.3333 7.05742L17.3333 16.0001C17.3333 16.7354 16.7353 17.3334 16 17.3334Z" fill="currentColor" fill-rule="nonzero" />
		<path id="矢量 41" d="M6.66671 8.66675L10.6667 8.66675L10.6667 4.00008L6.66671 4.00008L6.66671 8.66675ZM10.9967 10.0001L6.33604 10.0001C5.78337 10.0001 5.33337 9.55008 5.33337 8.99742L5.33337 2.66675L12 2.66675L12 8.99742C12 9.55008 11.55 10.0001 10.9967 10.0001L10.9967 10.0001Z" fill="currentColor" fill-rule="nonzero" />
	</g>
</svg>
