<svg viewBox="0 0 20 20" xmlns="http://www.w3.org/2000/svg" xmlns:xlink="http://www.w3.org/1999/xlink" width="20.000000" height="20.000000" fill="none">
	<rect id="模板 1" width="20.000000" height="20.000000" x="0.000000" y="0.000000" />
	<path id="矢量 86" d="M1.25 2.49437C1.25 1.80687 1.81375 1.25 2.50562 1.25L7.49437 1.25C8.18812 1.25 8.75 1.8125 8.75 2.49437L8.75 17.5062C8.75 18.1937 8.18625 18.7506 7.49438 18.7506L2.50625 18.7506C1.81187 18.75 1.25 18.1875 1.25 17.5056L1.25 2.49375L1.25 2.49437ZM2.5 3.12562L2.5 16.8744C2.5 17.2206 2.77875 17.5 3.12312 17.5L6.87687 17.5C7.21687 17.5 7.5 17.22 7.5 16.875L7.5 3.125C7.5 2.77937 7.22125 2.5 6.87687 2.5L3.12313 2.5C2.78312 2.5 2.5 2.78 2.5 3.125L2.5 3.12562ZM10 2.50562C10 1.81187 10.5606 1.25 11.2537 1.25L17.4963 1.25C18.1887 1.25 18.75 1.81375 18.75 2.50562L18.75 7.49437C18.75 8.18812 18.1894 8.75 17.4963 8.75L11.2537 8.75C11.0336 8.74967 10.8173 8.69144 10.6267 8.58115C10.4361 8.47087 10.2779 8.3124 10.1679 8.12165C10.0579 7.9309 10 7.71457 10 7.49437L10 2.50625L10 2.50562ZM11.25 3.12312L11.25 6.87687C11.2503 6.98602 11.2792 7.09318 11.3338 7.18768C11.3884 7.28219 11.4668 7.36075 11.5612 7.41554C11.6556 7.47034 11.7627 7.49945 11.8719 7.5L16.8781 7.5C17.2156 7.5 17.5 7.22125 17.5 6.87687L17.5 3.12313C17.4997 3.01398 17.4708 2.90682 17.4162 2.81231C17.3616 2.71781 17.2832 2.63925 17.1888 2.58446C17.0944 2.52966 16.9873 2.50054 16.8781 2.5L11.8719 2.5C11.5344 2.5 11.25 2.77875 11.25 3.12312L11.25 3.12312ZM10 11.2537C10 10.5612 10.5606 10 11.2537 10L17.4963 10C18.1887 10 18.75 10.5606 18.75 11.2537L18.75 17.4962C18.7501 17.7164 18.6922 17.9326 18.5822 18.1233C18.4722 18.3139 18.3139 18.4722 18.1233 18.5822C17.9326 18.6922 17.7164 18.7501 17.4963 18.75L11.2537 18.75C11.0336 18.7501 10.8174 18.6922 10.6267 18.5822C10.4361 18.4722 10.2778 18.3139 10.1678 18.1233C10.0578 17.9326 9.99989 17.7164 10 17.4962L10 11.2537ZM11.25 11.8725L11.25 16.8781C11.25 17.2156 11.5287 17.5 11.8719 17.5L16.8781 17.5C17.2156 17.5 17.5 17.2213 17.5 16.8781L17.5 11.8719C17.5 11.5344 17.2213 11.25 16.8781 11.25L11.8719 11.25C11.5344 11.25 11.25 11.5287 11.25 11.8719L11.25 11.8725Z" fill="currentColor" fill-rule="nonzero" />
</svg>
