<svg viewBox="0 0 20 20" xmlns="http://www.w3.org/2000/svg" xmlns:xlink="http://www.w3.org/1999/xlink" width="20.000000" height="20.000000" fill="none">
	<rect id="Design/layout" width="20.000000" height="20.000000" x="0.000000" y="0.000000" fill="rgb(255,255,255)" fill-opacity="0" />
	<path id="Vector" d="M3.82153 3.82141C4.13409 3.50885 4.55801 3.33325 5.00004 3.33325L6.66671 3.33325C7.10874 3.33325 7.53266 3.50885 7.84522 3.82141C8.15778 4.13397 8.33337 4.55789 8.33337 4.99992L8.33337 5.83325C8.33337 6.27528 8.15778 6.6992 7.84522 7.01176C7.53266 7.32432 7.10874 7.49992 6.66671 7.49992L5.00004 7.49992C4.55801 7.49992 4.13409 7.32432 3.82153 7.01176C3.50897 6.6992 3.33337 6.27528 3.33337 5.83325L3.33337 4.99992C3.33337 4.55789 3.50897 4.13397 3.82153 3.82141ZM3.82153 11.3214C4.13409 11.0088 4.55801 10.8333 5.00004 10.8333L6.66671 10.8333C7.10874 10.8333 7.53266 11.0088 7.84522 11.3214C8.15778 11.634 8.33337 12.0579 8.33337 12.4999L8.33337 14.9999C8.33337 15.4419 8.15778 15.8659 7.84522 16.1784C7.53266 16.491 7.10874 16.6666 6.66671 16.6666L5.00004 16.6666C4.55801 16.6666 4.13409 16.491 3.82153 16.1784C3.50897 15.8659 3.33337 15.4419 3.33337 14.9999L3.33337 12.4999C3.33337 12.0579 3.50897 11.634 3.82153 11.3214ZM12.1549 3.82141C12.4674 3.50885 12.8913 3.33325 13.3334 3.33325L15 3.33325C15.4421 3.33325 15.866 3.50885 16.1786 3.82141C16.4911 4.13397 16.6667 4.55789 16.6667 4.99992L16.6667 14.9999C16.6667 15.4419 16.4911 15.8659 16.1786 16.1784C15.866 16.491 15.4421 16.6666 15 16.6666L13.3334 16.6666C12.8913 16.6666 12.4674 16.491 12.1549 16.1784C11.8423 15.8659 11.6667 15.4419 11.6667 14.9999L11.6667 4.99992C11.6667 4.55789 11.8423 4.13397 12.1549 3.82141Z" fill-rule="nonzero" stroke="currentColor" stroke-linecap="round" stroke-linejoin="round" stroke-width="2" />
</svg>
