<svg viewBox="0 0 20 20" xmlns="http://www.w3.org/2000/svg" xmlns:xlink="http://www.w3.org/1999/xlink" width="20.000000" height="20.000000" fill="none">
	<rect id="Document/file-import" width="20.000000" height="20.000000" x="0.000000" y="0.000000" fill="rgb(255,255,255)" fill-opacity="0" />
	<path id="Vector" d="M11.6667 2.5L11.6667 5.83333C11.6667 6.05435 11.7545 6.26631 11.9108 6.42259C12.067 6.57887 12.279 6.66667 12.5 6.66667L15.8334 6.66667M4.16669 10.8333L4.16669 4.16667C4.16669 3.72464 4.34228 3.30072 4.65484 2.98816C4.9674 2.67559 5.39133 2.5 5.83335 2.5L11.6667 2.5L15.8334 6.66667L15.8334 15.8333C15.8334 16.2754 15.6578 16.6993 15.3452 17.0118C15.0326 17.3244 14.6087 17.5 14.1667 17.5L9.58335 17.5M1.66669 15.8333L7.50002 15.8333M5.00002 13.3333L7.50002 15.8333L5.00002 18.3333" fill-rule="nonzero" stroke="currentColor" stroke-width="1" />
</svg>
