<svg viewBox="0 0 20 20" xmlns="http://www.w3.org/2000/svg" xmlns:xlink="http://www.w3.org/1999/xlink" width="20.000000" height="20.000000" fill="none">
	<rect id="截图 1" width="20.000000" height="20.000000" x="0.000000" y="0.000000" />
	<path id="矢量 84" d="M16.3145 4.90039L16.3145 15.1016L3.68555 15.1016L3.68555 4.90039L16.3145 4.90039ZM17.2871 3.92773L2.71289 3.92773L2.71289 16.0723L17.2852 16.0723L17.2852 3.92773L17.2871 3.92773L17.2871 3.92773Z" fill="currentColor" fill-rule="nonzero" />
	<path id="矢量 85" d="M2.71289 1.98438L2.71289 3.92773L1.25586 3.92773L1.25586 4.90039L3.68555 4.90039L3.68555 1.98438L2.71289 1.98438ZM17.2871 18.0156L17.2871 16.0723L18.7441 16.0723L18.7441 15.0996L16.3145 15.0996L16.3145 18.0156L17.2871 18.0156ZM9.98047 13.7773L5.81055 13.7773C5.6582 13.7773 5.41211 13.7207 5.35547 13.625C5.29883 13.5293 5.39258 13.3027 5.46875 13.1699C5.98047 12.3926 6.51172 11.6152 7.02344 10.8379C7.19336 10.5918 7.36523 10.5723 7.63086 10.6855C8.50195 11.1035 9.39453 11.5195 10.2852 11.9375C10.5312 12.0508 10.834 11.9746 10.9863 11.748C11.4609 11.0078 11.9531 10.2891 12.4648 9.56836C12.5605 9.43555 12.7305 9.22656 12.8633 9.22656C13.0156 9.22656 13.1289 9.47266 13.1855 9.625C13.6602 10.8008 14.1152 11.9941 14.5703 13.1699C14.7598 13.6621 14.6836 13.7773 14.1152 13.7773L9.98047 13.7773L9.98047 13.7773ZM8.44531 7.95703C8.44531 8.52539 7.95312 8.98047 7.38281 8.96094C6.81445 8.94141 6.37891 8.50586 6.37891 7.95703C6.37891 7.38867 6.85351 6.93359 7.44141 6.95313C7.9707 6.9707 8.44531 7.42578 8.44531 7.95703Z" fill="currentColor" fill-rule="nonzero" />
</svg>
