<svg viewBox="0 0 20 20" xmlns="http://www.w3.org/2000/svg" xmlns:xlink="http://www.w3.org/1999/xlink" width="20.000000" height="20.000000" fill="none">
	<rect id="ppt模式 黑 1" width="20.000000" height="20.000000" x="0.000000" y="0.000000" />
	<path id="矢量 91" d="M14.8 16.0801L14.8 17.5001L5.2 17.5001L5.2 16.0801L14.8 16.0801ZM16.58 14.3001L16.58 10.2001C16.58 9.61708 16.579 9.26408 16.558 9.00208C16.538 8.75808 16.508 8.71808 16.517 8.73608C16.4614 8.62719 16.3729 8.53864 16.264 8.48308C16.282 8.49308 16.242 8.46308 15.998 8.44308C15.736 8.42108 15.383 8.42008 14.8 8.42008L5.2 8.42008C4.617 8.42008 4.264 8.42008 4.002 8.44208C3.758 8.46208 3.718 8.49208 3.736 8.48308C3.62711 8.53864 3.53856 8.62719 3.483 8.73608C3.493 8.71808 3.463 8.75808 3.443 9.00208C3.421 9.26408 3.42 9.61708 3.42 10.2001L3.42 14.3001C3.42 14.8831 3.421 15.2361 3.442 15.4981C3.462 15.7421 3.492 15.7831 3.483 15.7641C3.53856 15.873 3.62711 15.9615 3.736 16.0171C3.718 16.0071 3.758 16.0371 4.002 16.0571C4.264 16.0791 4.617 16.0801 5.2 16.0801L5.2 17.5001L4.458 17.4971C3.916 17.4891 3.552 17.4571 3.26 17.3541L3.092 17.2821C2.7636 17.1149 2.48778 16.8602 2.295 16.5461L2.218 16.4081C2 15.9801 2 15.4201 2 14.3001L2 10.2001C2 9.08008 2 8.52008 2.218 8.09208C2.40974 7.71577 2.71569 7.40982 3.092 7.21808C3.412 7.05408 3.808 7.01308 4.458 7.00308L5.2 7.00008L14.8 7.00008C15.92 7.00008 16.48 7.00008 16.908 7.21808C17.2843 7.40982 17.5903 7.71577 17.782 8.09208C18 8.52008 18 9.08008 18 10.2001L18 14.3001C18 15.4201 18 15.9801 17.782 16.4081L17.705 16.5461C17.5122 16.8602 17.2364 17.1149 16.908 17.2821L16.74 17.3541C16.331 17.5001 15.78 17.5001 14.8 17.5001L14.8 16.0801C15.383 16.0801 15.736 16.0791 15.998 16.0581C16.242 16.0381 16.282 16.0081 16.264 16.0171C16.3729 15.9615 16.4614 15.873 16.517 15.7641C16.507 15.7831 16.537 15.7421 16.557 15.4981C16.579 15.2361 16.58 14.8831 16.58 14.3001L16.58 14.3001ZM4 5.29008C4 5.16545 4.03281 5.04301 4.09512 4.93508C4.15744 4.82714 4.24707 4.73752 4.355 4.6752C4.46293 4.61288 4.58537 4.58008 4.71 4.58008L15.29 4.58008C15.4399 4.58015 15.5859 4.62765 15.7072 4.71579C15.8284 4.80393 15.9186 4.92818 15.9649 5.07074C16.0112 5.2133 16.0112 5.36686 15.9649 5.50942C15.9186 5.65198 15.8284 5.77623 15.7072 5.86436C15.5859 5.9525 15.4399 6.00001 15.29 6.00008L4.71 6.00008C4.58537 6.00008 4.46293 5.96727 4.355 5.90496C4.24707 5.84264 4.15744 5.75301 4.09512 5.64508C4.03281 5.53714 4 5.41471 4 5.29008ZM6 3.29008C6 3.16545 6.03281 3.04301 6.09512 2.93508C6.15744 2.82714 6.24707 2.73752 6.355 2.6752C6.46293 2.61288 6.58537 2.58008 6.71 2.58008L13.29 2.58008C13.4399 2.58015 13.5859 2.62765 13.7072 2.71579C13.8284 2.80393 13.9186 2.92818 13.9649 3.07074C14.0112 3.2133 14.0112 3.36686 13.9649 3.50942C13.9186 3.65198 13.8284 3.77623 13.7072 3.86436C13.5859 3.9525 13.4399 4.00001 13.29 4.00008L6.71 4.00008C6.58537 4.00008 6.46293 3.96727 6.355 3.90496C6.24707 3.84264 6.15744 3.75301 6.09512 3.64508C6.03281 3.53714 6 3.41471 6 3.29008Z" fill="currentColor" fill-rule="nonzero" />
</svg>
