<svg viewBox="0 0 11.2258 13.5883" xmlns="http://www.w3.org/2000/svg" xmlns:xlink="http://www.w3.org/1999/xlink" width="11.225830" height="13.588257" fill="none" customframe="#000000">
	<g id="组合 225">
		<path id="矢量 25" d="M10.1397 0L3.09898 0C2.7972 0 2.52388 0.132338 2.32744 0.343775C1.87476 0.168845 1.4107 0.104958 1.01639 0.162761C0.371536 0.258592 0.156586 0.628226 0.0839871 0.839662C0.0797165 0.853352 0.0768695 0.867043 0.0740225 0.882254C0.0526699 0.93093 0.0398583 0.984169 0.0398583 1.04045L0.0284702 3.80434C0.0227761 5.64795 0.0128116 8.41335 0 12.1006L0 12.1021C0 12.1523 0.00996452 12.201 0.0256232 12.2451C0.0412818 12.5067 0.126692 12.7394 0.286125 12.9357C0.428476 13.1106 0.627768 13.2536 0.879729 13.3585C1.24415 13.5107 1.72529 13.5882 2.30608 13.5882C2.77015 13.5882 3.85629 13.3023 4.19508 13.1425L4.21928 13.1425L4.21928 11.5089L3.51322 11.5089L3.51322 12.5904C3.11321 12.7075 2.55662 12.8338 2.30608 12.8338C1.81924 12.8338 1.41497 12.7729 1.13596 12.6573C0.775813 12.5067 0.727413 12.3166 0.727413 12.1675C0.727413 12.0428 0.772966 11.9348 0.871188 11.8298C1.14593 11.5347 1.79362 11.3278 2.44417 11.3278L2.44417 11.2716C2.62637 11.4191 2.85271 11.5073 3.09756 11.5073L10.1368 11.5073C10.7361 11.5073 11.2258 10.9841 11.2258 10.3437L11.2258 1.16366C11.2286 0.523268 10.739 0 10.1397 0L10.1397 0ZM1.34522 10.7346C1.1018 10.8091 0.889694 10.905 0.710332 11.019C0.733108 4.83719 0.744496 1.57893 0.745919 1.1013C0.745919 1.09978 0.747343 1.09825 0.747343 1.09673C0.804283 0.927888 1.32671 0.783381 2.01854 1.02676C2.01427 1.07087 2.01 1.11651 2.01 1.16214L2.01 10.3406C2.01 10.4273 2.01996 10.5125 2.03704 10.5947C1.79932 10.6205 1.56159 10.6677 1.34522 10.7346L1.34522 10.7346ZM10.5226 10.3421C10.5226 10.5688 10.3503 10.7513 10.1397 10.7513L3.09898 10.7513C2.88688 10.7513 2.71606 10.5673 2.71606 10.3421L2.71606 1.16366C2.71606 0.937015 2.8883 0.754479 3.09898 0.754479L10.1382 0.754479C10.3503 0.754479 10.5212 0.938536 10.5212 1.16366L10.5212 10.3421L10.5226 10.3421Z" fill="currentColor" fill-rule="nonzero" />
		<path id="矢量 26" d="M9.32778 4.675L4.22086 4.675C4.02764 4.675 3.87109 4.84349 3.87109 5.05145C3.87109 5.25941 4.02764 5.4279 4.22086 5.4279L9.32778 5.4279C9.521 5.4279 9.67755 5.25941 9.67755 5.05145C9.67755 4.84349 9.521 4.675 9.32778 4.675ZM4.22086 3.63522L6.12485 3.63522C6.31807 3.63522 6.47462 3.46673 6.47462 3.25877C6.47462 3.05081 6.31807 2.88232 6.12485 2.88232L4.22086 2.88232C4.02764 2.88232 3.87109 3.05081 3.87109 3.25877C3.87109 3.46673 4.02764 3.63522 4.22086 3.63522L4.22086 3.63522ZM9.31085 6.49045L4.22086 6.49045C4.02764 6.49045 3.87109 6.65894 3.87109 6.8669C3.87109 7.07486 4.02764 7.24335 4.22086 7.24335L9.31085 7.24335C9.50407 7.24335 9.66062 7.07486 9.66062 6.8669C9.66062 6.65894 9.50407 6.49045 9.31085 6.49045ZM9.31085 8.3059L4.22086 8.3059C4.02764 8.3059 3.87109 8.47439 3.87109 8.68235C3.87109 8.8903 4.02764 9.05879 4.22086 9.05879L9.31085 9.05879C9.50407 9.05879 9.66062 8.8903 9.66062 8.68235C9.66062 8.47439 9.50407 8.3059 9.31085 8.3059Z" fill="currentColor" fill-rule="nonzero" />
	</g>
</svg>
