<svg viewBox="0 0 16 16" xmlns="http://www.w3.org/2000/svg" xmlns:xlink="http://www.w3.org/1999/xlink" width="16.000000" height="16.000000" fill="none">
	<rect id="file-markdown 1" width="16.000000" height="16.000000" x="0.000000" y="0.000000" />
	<path id="矢量 57" d="M13.3531 4.50938L9.99063 1.14688C9.89688 1.05313 9.77031 1 9.6375 1L3 1C2.72344 1 2.5 1.22344 2.5 1.5L2.5 14.5C2.5 14.7766 2.72344 15 3 15L13 15C13.2766 15 13.5 14.7766 13.5 14.5L13.5 4.86406C13.5 4.73125 13.4469 4.60312 13.3531 4.50937L13.3531 4.50938ZM12.3469 5.09375L9.40625 5.09375L9.40625 2.15313L12.3469 5.09375ZM12.375 13.875L3.625 13.875L3.625 2.125L8.34375 2.125L8.34375 5.5C8.34375 5.8625 8.6375 6.15625 9 6.15625L12.375 6.15625L12.375 13.875Z" fill="currentColor" fill-rule="nonzero" />
	<path id="矢量 58" d="M6.70312 7.51875C6.67344 7.45 6.60625 7.40625 6.53125 7.40625L5.98438 7.40625C5.88125 7.40625 5.79688 7.49062 5.79688 7.59375L5.79688 11.8438C5.79688 11.9469 5.88125 12.0312 5.98438 12.0312L6.40781 12.0312C6.51094 12.0312 6.59531 11.9469 6.59531 11.8438L6.59531 9.09531L7.63906 11.4422C7.66875 11.5094 7.73594 11.5531 7.81094 11.5531L8.1875 11.5531C8.26094 11.5531 8.32812 11.5094 8.35938 11.4422L9.40312 9.08906L9.40312 11.8438C9.40312 11.9469 9.4875 12.0312 9.59062 12.0312L10.0156 12.0312C10.1187 12.0312 10.2031 11.9469 10.2031 11.8438L10.2031 7.59375C10.2031 7.49062 10.1187 7.40625 10.0156 7.40625L9.47344 7.40625C9.39844 7.40625 9.33125 7.45 9.30156 7.51875L8.00313 10.5031L6.70312 7.51875Z" fill="currentColor" fill-rule="nonzero" />
</svg>
