<svg viewBox="0 0 20 20" xmlns="http://www.w3.org/2000/svg" xmlns:xlink="http://www.w3.org/1999/xlink" width="20.000000" height="20.000000" fill="none">
	<rect id="pdf (1) 1" width="20.000000" height="20.000000" x="0.000000" y="0.000000" />
	<path id="矢量 89" d="M4.58333 9.16675L6.25 9.16675C6.54256 9.16675 6.82997 9.24376 7.08333 9.39004C7.3367 9.53632 7.5471 9.74672 7.69338 10.0001C7.83966 10.2534 7.91667 10.5409 7.91667 10.8334L7.91667 11.2501C7.91667 11.5426 7.83966 11.83 7.69338 12.0834C7.5471 12.3368 7.3367 12.5472 7.08333 12.6935C6.82997 12.8397 6.54256 12.9167 6.25 12.9167L5.41667 12.9167L5.41667 14.5834L4.58333 14.5834L4.58333 9.16675L4.58333 9.16675ZM13.3333 12.5001L13.3333 14.5834L12.5 14.5834L12.5 9.16675L15.4167 9.16675L15.4167 10.0001L13.3333 10.0001L13.3333 11.6667L15 11.6667L15 12.5001L13.3333 12.5001L13.3333 12.5001ZM12.0833 1.66675L17.5 7.08342L17.5 16.6663C17.5005 16.9586 17.424 17.2458 17.2783 17.4992C17.1325 17.7525 16.9226 17.963 16.6697 18.1094C16.4168 18.2559 16.1298 18.3331 15.8375 18.3334L4.1625 18.3334C3.87041 18.3327 3.58364 18.2552 3.33093 18.1087C3.07821 17.9623 2.86843 17.752 2.72259 17.4989C2.57676 17.2458 2.5 16.9588 2.5 16.6667L2.5 3.33341C2.5 2.413 3.24542 1.66675 4.1625 1.66675L12.0833 1.66675ZM12.0746 7.08675L16.3225 7.08675L12.0833 2.84508L12.0746 7.08675ZM16.6667 16.6667L16.6667 7.91675L12.08 7.91675C11.6217 7.91675 11.25 7.54425 11.25 7.08675L11.25 2.50008L4.1625 2.50008C3.70583 2.50008 3.33333 2.873 3.33333 3.33341L3.33333 16.6667C3.33333 17.1263 3.70625 17.5001 4.1625 17.5001L15.8375 17.5001C16.295 17.5001 16.6667 17.1272 16.6667 16.6663L16.6667 16.6667ZM8.33333 9.16675L9.58333 9.16675C9.94903 9.16675 10.3083 9.26301 10.625 9.44586C10.9417 9.62871 11.2047 9.89171 11.3876 10.2084C11.5704 10.5251 11.6667 10.8844 11.6667 11.2501L11.6667 12.5001C11.6667 12.8658 11.5704 13.225 11.3876 13.5417C11.2047 13.8585 10.9417 14.1215 10.625 14.3043C10.3083 14.4872 9.94903 14.5834 9.58333 14.5834L8.33333 14.5834L8.33333 9.16675ZM9.16667 13.7501L9.58333 13.7501C9.80275 13.7501 10.0183 13.6923 10.2083 13.5826C10.3984 13.4729 10.5562 13.3151 10.6659 13.1251C10.7756 12.9351 10.8333 12.7195 10.8333 12.5001L10.8333 11.2501C10.8333 11.0307 10.7756 10.8151 10.6659 10.6251C10.5562 10.4351 10.3984 10.2773 10.2083 10.1675C10.0183 10.0578 9.80275 10.0001 9.58333 10.0001L9.16667 10.0001L9.16667 13.7501L9.16667 13.7501ZM5.41667 10.0001L5.41667 12.0834L6.25 12.0834C6.39628 12.0834 6.53998 12.0449 6.66667 11.9718C6.79335 11.8986 6.89855 11.7934 6.97169 11.6667C7.04483 11.5401 7.08333 11.3964 7.08333 11.2501L7.08333 10.8334C7.08333 10.6871 7.04483 10.5434 6.97169 10.4167C6.89855 10.2901 6.79335 10.1849 6.66667 10.1117C6.53998 10.0386 6.39628 10.0001 6.25 10.0001L5.41667 10.0001Z" fill="currentColor" fill-rule="nonzero" />
</svg>
