<?xml version="1.0" standalone="no"?><!DOCTYPE svg PUBLIC "-//W3C//DTD SVG 1.1//EN" "http://www.w3.org/Graphics/SVG/1.1/DTD/svg11.dtd">
<svg t="1766102935713" class="icon" viewBox="0 0 1024 1024" version="1.1"
    xmlns="http://www.w3.org/2000/svg" p-id="16382"
    xmlns:xlink="http://www.w3.org/1999/xlink" width="200" height="200">
    <path d="M783.21830875 960.96893155H244.86919585a119.64324978 119.64324978 0 0 1-119.6444634-119.6444634V183.31268741a119.64324978 119.64324978 0 0 1 119.6444634-119.64446341h384.71209718c10.36925155-1.94908918 21.35624059 0.48787911 29.36255527 8.49540741l233.34456888 233.3615597c5.19312118 5.17491675 8.21141808 11.66298075 9.1871763 18.39377067 0.91871763 2.81197985 1.34955615 5.83149037 1.34955615 8.94445037v508.46226963a119.58742282 119.58742282 0 0 1-119.60684088 119.64324977z m-119.64324978-790.80106666v132.78807229h132.78685866L663.57505897 170.16907852z m179.47519051 192.60059496h-209.3632474a29.92446578 29.92446578 0 0 1-29.92446578-29.90626133V123.48074667H244.86798222a59.81252267 59.81252267 0 0 0-59.81130904 59.83194074v658.01178074a59.79431822 59.79431822 0 0 0 59.81252267 59.79431822h538.32969482a59.81252267 59.81252267 0 0 0 59.83194074-59.79431822V362.76845985h0.01941807z" fill="currentColor" p-id="16383"></path>
</svg>