<svg width="16" height="16" viewBox="0 0 24 24" fill="currentColor">
	<path d="M15.08 9.22c0.15-0.44 0.21-0.66 0.33-0.7c0.12 0.04 0.19 0.26 0.33 0.7c0.6 1.84 0.9 2.76 1.47 3.48c0.26 0.33 0.56 0.62 0.89 0.89c0.72 0.57 1.64 0.87 3.48 1.47c0.44 0.15 0.66 0.21 0.7 0.33c-0.04 0.12-0.26 0.19-0.7 0.33c-1.84 0.6-2.76 0.9-3.48 1.47c-0.33 0.26-0.62 0.56-0.89 0.89c-0.57 0.72-0.87 1.64-1.47 3.48c-0.15 0.44-0.21 0.66-0.33 0.7c-0.12-0.04-0.19-0.26-0.33-0.7c-0.6-1.84-0.9-2.76-1.47-3.48c-0.26-0.33-0.56-0.62-0.89-0.89c-0.72-0.57-1.64-0.87-3.48-1.47c-0.44-0.15-0.66-0.21-0.7-0.33c0.04-0.12 0.26-0.19 0.7-0.33c1.84-0.6 2.76-0.9 3.48-1.47c0.33-0.26 0.62-0.56 0.89-0.89c0.57-0.72 0.87-1.64 1.47-3.48Z" />
	<path d="M5.99 5.6c0.09-0.29 0.15-0.44 0.23-0.47c0.07 0.03 0.12 0.18 0.23 0.47c0.4 1.2 0.6 1.8 0.97 2.29c0.17 0.22 0.37 0.42 0.59 0.59c0.48 0.37 1.09 0.57 2.29 0.97c0.29 0.09 0.44 0.15 0.47 0.23c-0.03 0.07-0.18 0.12-0.47 0.23c-1.2 0.4-1.81 0.6-2.29 0.97c-0.22 0.17-0.42 0.37-0.59 0.59c-0.37 0.48-0.57 1.09-0.97 2.29c-0.09 0.29-0.15 0.44-0.23 0.47c-0.07-0.03-0.12-0.18-0.23-0.47c-0.4-1.2-0.6-1.8-0.97-2.29c-0.17-0.22-0.37-0.42-0.59-0.59c-0.48-0.37-1.09-0.57-2.29-0.97c-0.29-0.09-0.44-0.15-0.47-0.23c0.03-0.07 0.18-0.12 0.47-0.23c1.2-0.4 1.81-0.6 2.29-0.97c0.22-0.17 0.42-0.37 0.59-0.59c0.37-0.48 0.57-1.09 0.97-2.29Z" />
	<path d="M12.41 1.81c0.06-0.18 0.09-0.27 0.14-0.29c0.05 0.02 0.08 0.11 0.14 0.29c0.25 0.77 0.38 1.15 0.62 1.45c0.1 0.13 0.24 0.27 0.37 0.37c0.3 0.24 0.69 0.37 1.45 0.62c0.18 0.06 0.27 0.09 0.29 0.14c-0.02 0.05-0.11 0.08-0.29 0.14c-0.76 0.25-1.15 0.38-1.45 0.62c-0.13 0.1-0.27 0.24-0.37 0.37c-0.24 0.3-0.37 0.69-0.62 1.45c-0.06 0.18-0.09 0.27-0.14 0.29c-0.05-0.02-0.08-0.11-0.14-0.29c-0.25-0.77-0.38-1.15-0.62-1.45c-0.1-0.13-0.24-0.27-0.37-0.37c-0.3-0.24-0.69-0.37-1.45-0.62c-0.18-0.06-0.27-0.09-0.29-0.14c0.02-0.05 0.11-0.08 0.29-0.14c0.76-0.25 1.15-0.38 1.45-0.62c0.13-0.1 0.27-0.24 0.37-0.37c0.24-0.3 0.37-0.69 0.62-1.45Z" />
</svg>