<svg viewBox="0 0 20 20" xmlns="http://www.w3.org/2000/svg" xmlns:xlink="http://www.w3.org/1999/xlink" width="20.000000" height="20.000000" fill="none">
	<rect id="AI数字人 1" width="20.000000" height="20.000000" x="0.000000" y="0.000000" />
	<path id="矢量 87" d="M9.71112 2.43446C6.29612 2.43446 3.55278 4.68891 3.55278 7.43224C3.55278 7.43502 2.22223 7.43502 2.22223 7.43224C2.22223 3.98335 5.59167 1.21391 9.71112 1.21558C13.8317 1.21558 17.2 3.98335 17.2 7.43502C17.2 7.88724 17.14 8.1128 17.0256 8.54724L18.0867 10.7284C18.1722 10.9022 18.1622 11.1078 18.0611 11.2728C17.9533 11.445 17.7739 11.5584 17.5722 11.5817C16.5428 11.7178 16.4928 12.1028 16.4928 12.8372L16.4928 14.7356C16.4928 15.4095 15.8956 15.9578 15.1622 15.9578L14.7328 15.9578C13.9967 15.9578 13.8089 16.3089 13.8089 16.9839L13.8089 18.0656C13.8089 18.4011 13.5111 18.6767 13.1445 18.6767L8.87223 18.6767L8.87223 17.4545L12.4772 17.4545L12.4772 16.9839C12.4772 15.6339 13.2622 14.7356 14.7317 14.7356L15.1639 14.7356L15.1639 13.0584C15.1639 11.8028 15.3194 10.9434 16.5461 10.5539L15.7167 8.84946C15.6853 8.78508 15.6663 8.71532 15.6609 8.64388C15.6555 8.57245 15.6637 8.50063 15.685 8.43224C15.8083 8.03502 15.8695 7.84557 15.8695 7.43335C15.8695 4.68891 13.1278 2.43446 9.71112 2.43446L9.71112 2.43446ZM6.78223 8.88891L5.7889 8.88891C5.74388 8.88886 5.6999 8.90249 5.6628 8.92798C5.6257 8.95348 5.59721 8.98964 5.58112 9.03169L3.37001 14.815C3.35712 14.8487 3.35261 14.885 3.35689 14.9208C3.36116 14.9566 3.37408 14.9908 3.39453 15.0205C3.41498 15.0502 3.44235 15.0745 3.47428 15.0912C3.50621 15.108 3.54173 15.1167 3.57778 15.1167L4.44001 15.1167C4.48552 15.1166 4.5299 15.1025 4.56716 15.0764C4.60442 15.0503 4.63275 15.0133 4.64834 14.9706L5.0839 13.7711C5.09951 13.7283 5.12794 13.6913 5.16531 13.6651C5.20267 13.639 5.24718 13.625 5.29278 13.625L7.27834 13.625C7.32394 13.625 7.36845 13.639 7.40582 13.6651C7.44319 13.6913 7.47161 13.7283 7.48723 13.7711L7.92278 14.9706C7.9384 15.0134 7.96683 15.0504 8.00419 15.0766C8.04156 15.1027 8.08607 15.1167 8.13167 15.1167L8.99389 15.1167C9.0299 15.1166 9.06536 15.1078 9.09721 15.091C9.12907 15.0742 9.15636 15.05 9.17675 15.0203C9.19714 14.9906 9.21001 14.9564 9.21425 14.9207C9.2185 14.8849 9.21399 14.8486 9.20112 14.815L6.99001 9.03169C6.97391 8.98964 6.94543 8.95348 6.90832 8.92798C6.87122 8.90248 6.82725 8.88886 6.78223 8.88891L6.78223 8.88891ZM10.59 8.88891L9.78167 8.88891C9.74267 8.88891 9.70434 8.89918 9.67056 8.91868C9.63678 8.93819 9.60873 8.96624 9.58922 9.00002C9.56972 9.0338 9.55945 9.07212 9.55945 9.11113L9.55945 14.8945C9.55945 15.0167 9.6589 15.1167 9.78167 15.1167L10.59 15.1167C10.629 15.1167 10.6673 15.1064 10.7011 15.0869C10.7349 15.0674 10.763 15.0394 10.7825 15.0056C10.802 14.9718 10.8122 14.9335 10.8122 14.8945L10.8122 9.11113C10.8122 9.07212 10.802 9.0338 10.7825 9.00002C10.763 8.96624 10.7349 8.93818 10.7011 8.91868C10.6673 8.89918 10.629 8.88891 10.59 8.88891ZM5.84556 12.5472L6.72723 12.5472C6.76284 12.5472 6.79791 12.5386 6.8295 12.5222C6.86109 12.5057 6.88827 12.4819 6.90875 12.4528C6.92922 12.4237 6.9424 12.39 6.94716 12.3547C6.95192 12.3195 6.94814 12.2835 6.93612 12.25L6.49723 11.0245C6.48177 10.9815 6.45347 10.9444 6.41617 10.9181C6.37886 10.8918 6.33437 10.8776 6.28873 10.8775C6.24309 10.8774 6.19852 10.8913 6.16108 10.9174C6.12364 10.9435 6.09514 10.9805 6.07945 11.0234L5.63667 12.2495C5.62454 12.283 5.62067 12.319 5.62538 12.3544C5.63009 12.3897 5.64325 12.4234 5.66373 12.4526C5.68422 12.4818 5.71144 12.5057 5.74309 12.5222C5.77474 12.5386 5.80989 12.5472 5.84556 12.5472L5.84556 12.5472Z" fill="currentColor" fill-rule="nonzero" />
</svg>
