<svg viewBox="0 0 20 20" xmlns="http://www.w3.org/2000/svg" xmlns:xlink="http://www.w3.org/1999/xlink" width="20.000000" height="20.000000" fill="none">
	<rect id="ppt 1" width="20.000000" height="20.000000" x="0.000000" y="0.000000" />
	<path id="矢量 88" d="M11.2082 11.9249C11.1821 12.12 11.1053 12.3048 10.9855 12.4609C10.8656 12.617 10.7069 12.7389 10.5252 12.8145C10.3435 12.8901 10.1451 12.9167 9.9499 12.8916L9.29157 12.8916L9.60824 11.0749L10.2249 11.0749C10.9499 11.0749 11.3166 11.2916 11.2082 11.9249L11.2082 11.9249ZM10.5166 9.88328L8.33324 9.88328L7.19992 16.4083L8.70824 16.4083L9.07491 14.0833L9.80824 14.0833C10.2448 14.1212 10.684 14.0514 11.0872 13.8798C11.4905 13.7082 11.8454 13.4403 12.1208 13.0994C12.3961 12.7585 12.5836 12.3552 12.6666 11.9249C12.9499 10.3749 11.8916 9.88328 10.5082 9.88328L10.5166 9.88328ZM16.0832 18.5916L3.90827 18.5916L3.90827 1.40833L9.9999 1.40833L9.9999 6.09164C10.0028 6.33801 10.0695 6.57944 10.1935 6.79234C10.3175 7.00524 10.4946 7.18235 10.7075 7.30638C10.9204 7.4304 11.1619 7.4971 11.4082 7.49996L16.0749 7.49996L16.0832 18.5916ZM11.3832 2.15832L15.3082 6.09997L11.3832 6.09997L11.3832 2.15832ZM17.0832 5.89164L11.6666 0.416665C11.5815 0.330508 11.4864 0.254959 11.3832 0.191666L11.2999 0.149999L11.2416 0.149999C11.0628 0.0594297 10.8668 0.0082779 10.6666 3.33673e-09L3.92493 3.33673e-09C3.67667 -1.6984e-05 3.4327 0.0648282 3.21721 0.188112C3.00172 0.311396 2.82217 0.48884 2.69636 0.702868C2.57055 0.916895 2.50284 1.16008 2.49994 1.40833L2.49994 18.5916C2.50284 18.8398 2.57055 19.083 2.69636 19.297C2.82217 19.5111 3.00172 19.6885 3.21721 19.8118C3.4327 19.9351 3.67667 19.9999 3.92493 19.9999L16.0915 19.9999C16.3396 20.0029 16.584 19.9395 16.7993 19.8163C17.0146 19.6932 17.1931 19.5147 17.3163 19.2993C17.4395 19.084 17.5029 18.8396 17.4999 18.5916L17.4999 6.8833C17.4997 6.69863 17.4627 6.51584 17.3912 6.34558C17.3197 6.17533 17.215 6.02102 17.0832 5.89164L17.0832 5.89164Z" fill="currentColor" fill-rule="nonzero" />
</svg>
