<svg viewBox="0 0 18 18" xmlns="http://www.w3.org/2000/svg" xmlns:xlink="http://www.w3.org/1999/xlink" width="18.000000" height="18.000000" fill="none">
	<rect id="代码模式 1" width="18.000000" height="18.000000" x="0.000000" y="0.000000" />
	<path id="矢量 90" d="M11.7455 14.2771C11.4645 14.0092 11.4538 13.5641 11.7217 13.2831L15.0946 9.74454L12.1928 5.81915C11.9643 5.51 12.0267 5.0754 12.331 4.84275L12.3403 4.83576C12.6525 4.60492 13.0928 4.67093 13.3236 4.9832L16.5767 9.38385C16.7799 9.65862 16.756 10.0396 16.5203 10.287L12.7396 14.2533C12.4717 14.5344 12.0266 14.5451 11.7455 14.2771L11.7455 14.2771ZM5.97611 4.90966C6.25551 5.1793 6.26342 5.62445 5.99376 5.90387L2.61925 9.40036L5.8635 13.1181C6.11628 13.4077 6.08919 13.846 5.80472 14.1025L5.79602 14.1102C5.50343 14.3655 5.05927 14.3353 4.80395 14.0427L1.13539 9.83874C0.895398 9.56373 0.905751 9.1508 1.15923 8.88817L4.98189 4.92729C5.25156 4.64787 5.69669 4.63997 5.97611 4.90964L5.97611 4.90966ZM9.75743 2.92718C9.85924 2.55243 10.2456 2.33117 10.6203 2.43297C10.995 2.53475 11.2163 2.92108 11.1145 3.29583L7.91529 15.0732C7.8135 15.4479 7.42718 15.6692 7.05243 15.5674C6.67769 15.4656 6.45643 15.0793 6.55823 14.7045L9.75745 2.92718L9.75743 2.92718Z" fill="currentColor" fill-rule="nonzero" />
</svg>
