<svg viewBox="0 0 32 32" xmlns="http://www.w3.org/2000/svg" xmlns:xlink="http://www.w3.org/1999/xlink" width="32.000000" height="32.000000" fill="none">
	<rect id="灯泡 1" width="32.000000" height="32.000000" x="0.000000" y="0.000000" />
	<path id="矢量 108" d="M18.7698 23.6567C18.6914 23.6568 18.6134 23.6667 18.5375 23.6862L13.0763 25.0944C12.6613 25.1907 12.3916 25.5916 12.4588 26.0123C12.5085 26.4049 12.8145 26.8048 13.2993 26.8048C13.3783 26.8043 13.4569 26.7938 13.5333 26.7735L18.9928 25.3671C19.4077 25.2708 19.6774 24.8699 19.6103 24.4492C19.5605 24.0548 19.2564 23.6567 18.7698 23.6567L18.7698 23.6567ZM17.4648 26.6021C17.2981 26.6053 17.1365 26.66 17.0022 26.7587C16.6391 27.0076 16.2907 27.1458 15.9682 27.1642L15.9258 27.1642C15.7055 27.152 15.491 27.0889 15.2991 26.9799C15.2807 26.9707 15.2088 26.9228 15.1608 26.8915C15.0281 26.803 14.9913 26.779 14.947 26.7735C14.8218 26.7083 14.6827 26.6742 14.5415 26.674C14.3451 26.676 14.1538 26.7373 13.9926 26.8497C13.8315 26.9622 13.7081 27.1206 13.6384 27.3043C13.5333 27.6085 13.6328 27.9163 13.9038 28.1319C14.5157 28.613 15.2308 28.8691 15.9681 28.8691C16.6427 28.8691 17.3118 28.6535 17.9016 28.2461C18.0079 28.1753 18.0974 28.082 18.1638 27.9729C18.2301 27.8637 18.2717 27.7413 18.2857 27.6144C18.2996 27.4874 18.2855 27.3589 18.2444 27.2379C18.1264 26.8582 17.8131 26.6039 17.4648 26.6039L17.4648 26.6021L17.4648 26.6021ZM22.1372 11.2301C21.5471 10.1216 20.6482 9.20801 19.5494 8.59996C18.4924 8.02359 17.3067 7.7243 16.1028 7.72999C15.0595 7.72999 14.0108 7.95118 13.0671 8.36955C12.0828 8.8022 11.2122 9.45706 10.5235 10.2827C9.23697 11.8255 8.69325 14.0594 9.07294 16.2546C9.43603 18.365 10.5917 20.1362 12.2432 21.115C12.3753 21.1958 12.5269 21.2391 12.6818 21.2403C12.8101 21.2358 12.9359 21.2034 13.0504 21.1454C13.165 21.0875 13.2655 21.0052 13.3451 20.9045C13.4247 20.8037 13.4813 20.6869 13.5112 20.562C13.6213 20.1935 13.4593 19.7981 13.1223 19.6128C10.9142 18.3041 10.2857 15.1524 10.9713 12.9811C11.6367 10.8762 13.6734 9.46068 16.04 9.46068C17.0372 9.46068 18.0085 9.71871 18.8472 10.2071C19.9825 10.867 20.7935 11.9674 21.1327 13.3055C21.3147 14.0141 21.3547 14.7517 21.2503 15.4758C21.146 16.1999 20.8992 16.8962 20.5244 17.5245C20.224 18.0166 19.8351 18.4719 19.4591 18.9106C19.2176 19.1907 18.9669 19.4819 18.7402 19.7824C18.3532 20.2985 18.2352 20.8514 18.1191 21.3841L18.0564 21.6698L13.0762 22.995C12.6595 23.0947 12.3908 23.4994 12.4606 23.9221C12.5122 24.311 12.8144 24.7073 13.2955 24.7073C13.3765 24.7067 13.457 24.6955 13.5351 24.6741L17.4205 23.6401C17.5643 23.6014 17.7062 23.5664 17.8408 23.5332C18.9043 23.2715 19.7429 23.0632 19.8406 21.5278C19.8756 20.986 20.3401 20.4772 20.7511 20.033C20.8562 19.9169 20.9557 19.81 21.046 19.7012C21.54 19.1243 22.1538 18.3391 22.5427 17.4121C23.3647 15.4546 23.2191 13.2594 22.1372 11.232L22.1372 11.2301ZM7.42881 14.9404C7.42881 14.4612 7.04175 14.0705 6.56253 14.0705L4.87419 14.0705C4.39422 14.0705 4.00513 14.4596 4.00513 14.9395C4.00513 15.4195 4.39422 15.8086 4.87419 15.8086L6.55885 15.8086C7.03806 15.8086 7.42513 15.4197 7.42513 14.9405L7.42881 14.9405L7.42881 14.9404ZM27.0843 14.0705L25.4014 14.0705C24.9215 14.0705 24.5324 14.4596 24.5324 14.9395C24.5324 15.4195 24.9215 15.8086 25.4014 15.8086L27.0843 15.8086C27.5642 15.8086 27.9533 15.4195 27.9533 14.9395C27.9533 14.4596 27.5642 14.0705 27.0843 14.0705ZM8.73747 8.88564C9.09928 9.2018 9.64888 9.16477 9.965 8.80296C10.2515 8.47511 10.2515 7.98596 9.965 7.65808L8.77431 6.46371C8.4125 6.14755 7.86291 6.18458 7.54678 6.5464C7.26031 6.87424 7.26031 7.3634 7.54678 7.69127L8.73747 8.88564ZM23.2873 20.9952C22.9255 20.6791 22.3759 20.7161 22.0598 21.0779C21.7733 21.4057 21.7733 21.8949 22.0598 22.2228L23.2505 23.4153C23.6123 23.7315 24.1619 23.6944 24.478 23.3326C24.7645 23.0048 24.7645 22.5156 24.478 22.1877L23.2873 20.9952ZM16.0124 6.51352C16.4916 6.51352 16.8787 6.12461 16.8787 5.6454L16.8787 3.9589C16.8566 3.47996 16.4504 3.10958 15.9715 3.13168C15.5235 3.15233 15.1649 3.51086 15.1443 3.9589L15.1443 5.6454C15.1443 6.12461 15.5313 6.51352 16.0106 6.51352L16.0124 6.51352ZM9.965 20.9952C9.62738 20.6562 9.07888 20.6551 8.73991 20.9928L8.73747 20.9952L7.54678 22.1877C7.20781 22.5267 7.20781 23.0763 7.54678 23.4153C7.88575 23.7542 8.43535 23.7542 8.77431 23.4153L9.965 22.2246C10.3041 21.885 10.3041 21.3348 9.965 20.9952L9.965 20.9952ZM22.0598 8.88564C22.3974 9.22462 22.9459 9.22571 23.2849 8.88808L23.2873 8.88564L24.478 7.69311C24.817 7.35415 24.817 6.80455 24.478 6.46558C24.1391 6.12661 23.5895 6.12661 23.2505 6.46558L22.0598 7.65627C21.7207 7.99593 21.7207 8.54602 22.0598 8.88565L22.0598 8.88564Z" fill="currentColor" fill-rule="nonzero" />
</svg>
