<svg viewBox="0 0 18 18" xmlns="http://www.w3.org/2000/svg" xmlns:xlink="http://www.w3.org/1999/xlink" width="18.000000" height="18.000000" fill="none">
	<rect id="脑图 1" width="18.000000" height="18.000000" x="0.000000" y="0.000000" />
	<path id="矢量 56" d="M11.25 14.0625C11.25 13.865 11.302 13.671 11.4007 13.5C11.4995 13.329 11.6415 13.187 11.8125 13.0882C11.9835 12.9895 12.1775 12.9375 12.375 12.9375L15.75 12.9375C15.9475 12.9375 16.1415 12.9895 16.3125 13.0882C16.4835 13.187 16.6255 13.329 16.7243 13.5C16.823 13.671 16.875 13.865 16.875 14.0625L16.875 15.1875C16.875 15.385 16.823 15.579 16.7243 15.75C16.6255 15.921 16.4835 16.063 16.3125 16.1618C16.1415 16.2605 15.9475 16.3125 15.75 16.3125L12.375 16.3125C12.1775 16.3125 11.9835 16.2605 11.8125 16.1618C11.6415 16.063 11.4995 15.921 11.4007 15.75C11.302 15.579 11.25 15.385 11.25 15.1875L10.125 15.1875C8.87936 15.1875 7.66269 14.8117 6.63404 14.1093C5.60539 13.4068 4.81262 12.4103 4.35938 11.25L2.25 11.25C2.05252 11.25 1.85852 11.198 1.6875 11.0993C1.51648 11.0005 1.37446 10.8585 1.27572 10.6875C1.17698 10.5165 1.125 10.3225 1.125 10.125L1.125 7.875C1.125 7.67752 1.17698 7.48352 1.27572 7.3125C1.37446 7.14148 1.51648 6.99946 1.6875 6.90072C1.85852 6.80198 2.05252 6.75 2.25 6.75L4.35938 6.75C4.81262 5.58975 5.60539 4.59324 6.63404 3.89075C7.66269 3.18825 8.87936 2.81246 10.125 2.8125L11.25 2.8125C11.25 2.61502 11.302 2.42102 11.4007 2.25C11.4995 2.07898 11.6415 1.93696 11.8125 1.83822C11.9835 1.73948 12.1775 1.6875 12.375 1.6875L15.75 1.6875C15.9475 1.6875 16.1415 1.73948 16.3125 1.83822C16.4835 1.93696 16.6255 2.07898 16.7243 2.25C16.823 2.42102 16.875 2.61502 16.875 2.8125L16.875 3.9375C16.875 4.13498 16.823 4.32898 16.7243 4.5C16.6255 4.67102 16.4835 4.81304 16.3125 4.91178C16.1415 5.01052 15.9475 5.0625 15.75 5.0625L12.375 5.0625C12.1775 5.0625 11.9835 5.01052 11.8125 4.91178C11.6415 4.81304 11.4995 4.67102 11.4007 4.5C11.302 4.32898 11.25 4.13498 11.25 3.9375L10.125 3.9375C9.18201 3.93732 8.2577 4.20052 7.45627 4.69744C6.65483 5.19437 6.00811 5.90526 5.589 6.75L6.75 6.75C6.94748 6.75 7.14148 6.80198 7.3125 6.90072C7.48352 6.99946 7.62554 7.14148 7.72428 7.3125C7.82302 7.48352 7.875 7.67752 7.875 7.875L7.875 8.4375L12.5258 8.4375C12.6356 8.24722 12.7988 8.09327 12.9951 7.99466C13.1915 7.89605 13.4124 7.8571 13.6306 7.88261C13.8489 7.90811 14.0549 7.99697 14.2232 8.1382C14.3915 8.27943 14.5148 8.46686 14.5778 8.67735C14.6408 8.88783 14.6408 9.11217 14.5778 9.32265C14.5148 9.53314 14.3915 9.72057 14.2232 9.8618C14.0549 10.003 13.8489 10.0919 13.6306 10.1174C13.4124 10.1429 13.1915 10.1039 12.9951 10.0053C12.7988 9.90673 12.6356 9.75278 12.5258 9.5625L7.875 9.5625L7.875 10.125C7.875 10.3225 7.82302 10.5165 7.72428 10.6875C7.62554 10.8585 7.48352 11.0005 7.3125 11.0993C7.14148 11.198 6.94748 11.25 6.75 11.25L5.589 11.25C6.00811 12.0947 6.65483 12.8056 7.45627 13.3026C8.2577 13.7995 9.18201 14.0627 10.125 14.0625L11.25 14.0625ZM12.375 2.8125L12.375 3.9375L15.75 3.9375L15.75 2.8125L12.375 2.8125ZM12.375 14.0625L12.375 15.1875L15.75 15.1875L15.75 14.0625L12.375 14.0625Z" fill="currentColor" fill-rule="nonzero" />
</svg>
