<svg viewBox="0 0 16 16" xmlns="http://www.w3.org/2000/svg" xmlns:xlink="http://www.w3.org/1999/xlink" width="16.000000" height="16.000000" fill="none">
	<rect id="Other/pencil-check" width="16.000000" height="16.000000" x="0.000000" y="0.000000" fill="rgb(255,255,255)" fill-opacity="0" />
	<path id="Vector" d="M5.33342 13.3335L12.3334 6.33345C12.5085 6.15836 12.6474 5.95049 12.7422 5.72171C12.8369 5.49294 12.8857 5.24774 12.8857 5.00012C12.8857 4.7525 12.8369 4.5073 12.7422 4.27853C12.6474 4.04975 12.5085 3.84188 12.3334 3.66679C12.1583 3.49169 11.9504 3.3528 11.7217 3.25804C11.4929 3.16328 11.2477 3.1145 11.0001 3.1145C10.7525 3.1145 10.5073 3.16328 10.2785 3.25804C10.0497 3.3528 9.84184 3.49169 9.66675 3.66679L2.66675 10.6668L2.66675 13.3335L5.33342 13.3335ZM9.00008 4.33345L11.6667 7.00012" fill-rule="nonzero" stroke="currentColor" stroke-width="2" />
</svg>
