<svg viewBox="0 0 18 18" xmlns="http://www.w3.org/2000/svg" xmlns:xlink="http://www.w3.org/1999/xlink" width="18.000000" height="18.000000" fill="none">
	<rect id="符号-分栏 1" width="18.000000" height="18.000000" x="0.000000" y="0.000000" />
	<path id="矢量 92" d="M7.3125 1.125L2.25 1.125C1.63125 1.125 1.125 1.63125 1.125 2.25L1.125 15.75C1.125 16.3688 1.63125 16.875 2.25 16.875L7.3125 16.875C7.93125 16.875 8.4375 16.3688 8.4375 15.75L8.4375 2.25C8.4375 1.63125 7.93125 1.125 7.3125 1.125ZM7.3125 15.1875C7.3125 15.525 7.0875 15.75 6.75 15.75L2.8125 15.75C2.475 15.75 2.25 15.525 2.25 15.1875L2.25 2.8125C2.25 2.475 2.475 2.25 2.8125 2.25L6.75 2.25C7.0875 2.25 7.3125 2.475 7.3125 2.8125L7.3125 15.1875ZM15.75 1.125L10.6875 1.125C10.0687 1.125 9.5625 1.63125 9.5625 2.25L9.5625 15.75C9.5625 16.3688 10.0687 16.875 10.6875 16.875L15.75 16.875C16.3688 16.875 16.875 16.3688 16.875 15.75L16.875 2.25C16.875 1.63125 16.3688 1.125 15.75 1.125ZM15.75 15.1875C15.75 15.525 15.525 15.75 15.1875 15.75L11.25 15.75C10.9125 15.75 10.6875 15.525 10.6875 15.1875L10.6875 2.8125C10.6875 2.475 10.9125 2.25 11.25 2.25L15.1875 2.25C15.525 2.25 15.75 2.475 15.75 2.8125L15.75 15.1875Z" fill="currentColor" fill-rule="nonzero" />
</svg>
