<svg width="85.000000" height="85.000000" viewBox="0 0 85 85" fill="none" xmlns="http://www.w3.org/2000/svg" xmlns:xlink="http://www.w3.org/1999/xlink">
	<desc>
			Created with Pixso.
	</desc>
	<defs/>
    <rect width="100%" height="100%" fill="#4462FC" />
	<path id="矢量 1" d="M56.48 17C51.93 17 48.24 20.71 48.24 25.29C48.24 29.86 51.93 33.57 56.48 33.57C61.04 33.57 64.73 29.86 64.73 25.29C64.73 20.71 61.04 17 56.48 17ZM9.27 54.07L23.78 22.87C25.27 19.67 28.52 17.88 31.83 18.11C35.14 17.88 38.39 19.67 39.88 22.87L54.39 54.07C56.32 58.21 54.54 63.15 50.41 65.09C46.29 67.03 41.38 65.24 39.45 61.09L31.83 44.7L24.21 61.09C22.28 65.24 17.37 67.03 13.25 65.09C9.12 63.15 7.34 58.21 9.27 54.07ZM72.07 40.54L77.84 52.96C79.77 57.1 77.99 62.04 73.87 63.98C69.74 65.92 64.84 64.13 62.91 59.98L57.13 47.56C55.2 43.41 56.98 38.48 61.11 36.54C65.23 34.6 70.14 36.39 72.07 40.54Z" fill="#FFFFFF" fill-opacity="1.000000" fill-rule="evenodd"/>
</svg>
